<?xml version="1.0" encoding="UTF-8" standalone="no"?>
<!DOCTYPE svg PUBLIC "-//W3C//DTD SVG 1.1//EN" "http://www.w3.org/Graphics/SVG/1.1/DTD/svg11.dtd">
<svg width="100%" height="100%" viewBox="0 0 1380 1372" version="1.1" xmlns="http://www.w3.org/2000/svg" xmlns:xlink="http://www.w3.org/1999/xlink" xml:space="preserve" xmlns:serif="http://www.serif.com/" style="fill-rule:evenodd;clip-rule:evenodd;stroke-linejoin:round;stroke-miterlimit:2;">
    <g id="Layer_6">
        <g>
            <path d="M124.19,715.63C126.1,686.49 127.99,657.81 129.89,629.13C131.61,603.22 133.32,577.32 135.05,551.41C136.79,525.34 138.54,499.27 140.31,473.21C142.05,447.47 143.79,421.73 145.58,395.99C145.7,394.21 145.9,392.36 146.52,390.69C151.61,377.09 159.3,365.78 175.38,361.11C188.86,357.19 202.23,352.89 216.24,350.97C223.19,350.02 230.31,350.08 237.35,349.73C239.28,349.63 241.21,349.72 243.71,349.72C244.09,344.73 244.54,339.76 244.82,334.78C245.68,319.79 246.38,304.78 247.31,289.79C248.26,274.4 259.97,262.16 276.48,260C287.66,258.54 298.98,257.87 310.25,257.15C332.14,255.76 354.06,255.54 375.97,256.46C453.2,259.67 527.78,273.37 597.12,306.22C629.54,321.58 658.97,340.97 683.35,366.36C684.4,367.46 685.4,368.61 686.44,369.72C687.47,370.81 688.53,371.88 689.87,373.27C690.85,372.3 691.69,371.55 692.43,370.73C711.83,349.35 735.29,332.51 760.8,317.8C801.61,294.27 846.28,279.93 892.77,269.92C926.22,262.72 960.17,258.62 994.48,256.93C1027.2,255.32 1059.85,255.88 1092.45,258.88C1096.14,259.22 1099.86,259.4 1103.51,259.95C1118.64,262.23 1129.73,272.54 1132.1,286.52C1132.59,289.41 1132.7,292.37 1132.87,295.3C1133.82,312.09 1134.72,328.88 1135.66,345.67C1135.73,346.94 1136.03,348.21 1136.19,349.33C1136.76,349.58 1137.08,349.85 1137.38,349.83C1159.03,348.25 1179.41,353.46 1199.61,359.68C1201.95,360.4 1204.27,361.2 1206.63,361.89C1213.99,364.04 1219.88,367.99 1223.98,374.06C1226.77,378.2 1229.66,382.31 1231.97,386.68C1234.84,392.1 1234.39,398.17 1234.79,404C1237.35,440.98 1239.8,477.97 1242.25,514.95C1244.47,548.35 1246.61,581.75 1248.85,615.15C1250.84,644.8 1252.94,674.45 1254.94,704.1C1256.2,722.83 1257.35,741.58 1258.58,760.31C1260.31,786.54 1262.06,812.77 1263.81,839.01C1265.53,864.75 1267.25,890.49 1269.01,916.23C1270.65,940.34 1272.36,964.45 1273.99,988.56C1274.41,994.75 1274.9,1000.95 1274.97,1007.15C1275.09,1017.62 1270.36,1025.99 1261.63,1032.65C1253.57,1038.79 1244.6,1041.97 1234.03,1042.46C1219.39,1043.14 1204.76,1045.01 1190.1,1043.94C1159.23,1041.69 1128.29,1041.96 1097.37,1041.25C1089.95,1041.08 1082.53,1040.73 1075.1,1040.76C1053.19,1040.85 1031.26,1040.65 1009.36,1041.36C972.44,1042.55 935.62,1045.17 899.03,1050.12C867.44,1054.39 836.91,1062.16 807.15,1072.84C782.69,1081.63 759.49,1092.66 737.3,1105.47C728.65,1110.46 719.39,1113.24 709.59,1114.55C691.77,1116.92 674.01,1116.44 656.6,1111.75C653.58,1110.94 650.61,1109.72 647.87,1108.28C638.67,1103.43 629.67,1098.24 620.42,1093.46C602.98,1084.43 584.69,1077.1 566.03,1070.53C535.01,1059.61 502.98,1052.66 470.07,1048.81C439.89,1045.27 409.61,1043.29 379.24,1041.76C337.69,1039.67 296.19,1040.93 254.67,1041.8C238.41,1042.14 222.16,1042.55 205.9,1042.98C194.6,1043.28 183.3,1044.09 172.02,1043.93C161.26,1043.78 150.5,1042.79 139.76,1041.97C126.26,1040.93 107.46,1028.33 105.45,1013.29C104.78,1008.31 104.89,1003.18 105.22,998.15C107.16,968.33 109.31,938.53 111.3,908.71C112.55,889.97 113.6,871.22 114.85,852.48C116.8,823.32 118.85,794.16 120.84,765C122,748.68 123.08,732.39 124.19,715.63ZM723.49,779.93C723.47,825.55 722.23,871.17 722.96,917.24C724.13,916.71 724.76,916.5 725.32,916.17C739.16,908.02 752.65,899.27 766.93,891.85C781.99,884.03 797.54,876.9 813.36,870.47C860.05,851.49 908.77,838.17 958.35,827.46C988.1,821.03 1018.17,816.08 1048.38,811.78C1063.12,809.68 1077.78,808.31 1092.65,808.86C1092.92,808.87 1093.2,808.53 1093.65,808.24C1093.65,807.56 1093.69,806.76 1093.64,805.97C1093.02,794.72 1092.38,783.48 1091.75,772.23C1090.93,757.56 1090.14,742.89 1089.28,728.22C1088.39,713.07 1087.4,697.92 1086.54,682.76C1085.68,667.6 1085,652.43 1084.12,637.27C1082.87,615.59 1081.45,593.93 1080.21,572.25C1078.97,550.41 1077.94,528.56 1076.7,506.71C1075.08,478.19 1073.28,449.68 1071.66,421.15C1070.03,392.63 1068.54,364.1 1066.95,335.57C1066.68,330.71 1066.25,325.86 1065.88,320.9C1063.28,320.66 1061.02,320.44 1058.75,320.25C1057.34,320.13 1055.93,320.03 1054.52,319.99C1025.87,319.06 997.29,319.76 968.76,322.6C938.83,325.58 909.38,330.71 880.5,338.54C850.73,346.61 822.17,357.32 795.56,372.2C777.62,382.23 761.31,394.09 747.53,408.8C739.39,417.49 732.38,426.84 727.3,437.37C726.52,438.99 725.71,440.72 725.53,442.45C725.04,446.99 724.69,451.56 724.64,456.12C724.35,484.37 724.05,512.61 723.97,540.86C723.77,620.24 723.65,699.6 723.49,779.93ZM299.09,582.66C298.12,598.14 297.1,613.61 296.19,629.09C294.42,659.24 292.7,689.39 291,719.54C289.47,746.6 287.98,773.66 286.52,800.72C286.37,803.4 286.5,806.1 286.5,808.9C299.45,808.78 311.9,808.61 324.35,810.82C343.24,814.17 362.38,816.37 381.28,819.7C426.58,827.68 471.17,838.21 514.87,851.98C563.6,867.34 609.79,887.3 652.12,914.57C652.77,914.99 653.57,915.21 654.72,915.7C654.72,913.92 654.71,912.64 654.72,911.35C654.93,872.82 655.21,834.28 655.36,795.75C655.78,684.56 656.12,573.37 656.58,462.17C656.64,447.55 652.89,434.25 643.58,422.19C631.34,406.35 616.8,392.76 599.63,381.52C573.89,364.68 545.62,352.56 515.84,343.35C453.4,324.04 389.09,317.7 323.56,320.07C320.42,320.18 317.3,320.61 313.96,320.91C313.77,323.27 313.55,325.37 313.44,327.47C313.2,332.04 313.06,336.61 312.79,341.17C311.87,356.98 310.87,372.78 309.96,388.58C309.11,403.41 308.36,418.25 307.51,433.08C306.63,448.23 305.64,463.38 304.77,478.54C303.87,494.19 303.06,509.84 302.2,525.48C301.18,544.24 300.15,562.99 299.09,582.66ZM264.8,898.25C286.7,898.95 308.62,899.36 330.5,900.46C344.95,901.19 359.47,902.22 373.75,904.31C409.33,909.52 444.89,914.93 480.26,921.22C504.16,925.47 527.72,931.35 551.43,936.51C553.22,936.9 555,937.34 556.78,937.76C556.12,936.36 555.16,935.72 554.1,935.26C548.03,932.62 542.01,929.87 535.85,927.42C494.19,910.9 450.74,899.4 406.89,889.24C379.48,882.89 351.66,878.21 323.63,874.7C309.98,872.99 296.37,870.64 282.66,869.75C263.93,868.54 247.29,862.53 231.91,853.17C222.1,847.21 216.86,838.42 217.06,827.51C217.31,813.97 218.11,800.43 218.86,786.9C220.32,760.66 221.94,734.42 223.44,708.18C224.44,690.74 225.3,673.29 226.3,655.85C227.21,640.04 228.28,624.24 229.19,608.43C230.06,593.27 230.77,578.1 231.64,562.94C232.9,541.1 234.26,519.26 235.54,497.42C236.89,474.28 238.24,451.13 239.49,427.98C239.74,423.29 239.53,418.58 239.53,413.43C230.72,412.83 221.86,413.54 212.8,414.1C202.07,573.2 191.37,731.86 180.69,890.53C180.39,894.92 180.36,899.33 180.23,903.74C180.23,903.87 180.4,904.02 180.52,904.14C180.63,904.25 180.78,904.32 181.38,904.73C208.35,900.2 235.99,898.44 264.8,898.25ZM872.64,926.34C878.85,925.07 885.02,923.61 891.26,922.55C910.37,919.32 929.48,916.09 948.64,913.14C972.15,909.52 995.63,905.5 1019.29,902.93C1039.62,900.72 1060.16,900.08 1080.63,899.16C1101.64,898.22 1122.68,897.72 1143.7,898.95C1154.98,899.61 1166.24,900.67 1177.48,901.8C1184.79,902.53 1192.05,903.71 1200.01,904.77C1199.68,900.28 1199.38,896.42 1199.12,892.56C1197.88,873.66 1196.68,854.75 1195.41,835.85C1193.8,811.9 1192.09,787.95 1190.5,764C1188.91,740.05 1187.46,716.08 1185.85,692.13C1183.97,664.11 1181.96,636.09 1180.06,608.07C1178.77,589.01 1177.59,569.94 1176.3,550.88C1174.71,527.42 1173.01,503.96 1171.45,480.5C1170.21,461.92 1169.12,443.34 1167.91,424.76C1167.68,421.22 1167.25,417.7 1166.88,413.92C1157.63,413.78 1148.75,412.58 1139.82,413.59C1139.82,415.77 1139.74,417.39 1139.83,419.01C1140.36,427.97 1140.97,436.93 1141.48,445.89C1142.33,460.89 1143.08,475.89 1143.95,490.89C1145.2,512.41 1146.57,533.91 1147.8,555.43C1148.67,570.59 1149.32,585.76 1150.2,600.92C1151.84,629.45 1153.61,657.97 1155.25,686.49C1157.14,719.42 1158.96,752.35 1160.77,785.28C1161.53,799.14 1162.52,812.99 1162.75,826.86C1162.98,840.67 1155.53,850.34 1142.08,856.16C1140.65,856.78 1139.09,857.3 1137.89,858.2C1132.81,861.98 1126.86,863.93 1120.75,865.67C1105.93,869.87 1090.41,869.96 1075.28,872.34C1057.18,875.19 1038.93,877.2 1020.82,880.03C993.3,884.34 966.26,890.6 939.34,897.46C900.98,907.24 863.33,918.74 827.3,934.49C825.75,935.17 824.24,935.94 822.71,936.66C822.83,936.94 822.95,937.22 823.07,937.5C839.31,933.83 855.54,930.15 872.64,926.34Z" style="fill:currentColor;fill-rule:nonzero;"/>
            <path d="M887.88,563.68C901.12,548.46 917.59,538.68 938.21,535.56C948.54,534 958.67,535.61 968.27,539.46C971.11,540.6 972.91,540.24 975.25,538.29C981.16,533.39 987.28,528.69 993.61,524.26C1003.49,517.35 1015.06,514.43 1027.18,513.37C1038.6,512.38 1049.28,519.84 1051.42,529.87C1053.65,540.32 1047.35,550.26 1036.17,553.72C1033.84,554.44 1031.38,554.86 1028.95,555.23C1022.97,556.14 1018.09,558.81 1013.79,562.68C1008.98,567 1004.09,571.27 999.05,575.35C988.56,583.86 976.62,586.71 963.12,582.6C959.1,581.38 955.13,580.01 951.19,578.57C947.18,577.1 943.28,577.23 939.35,578.77C933.2,581.17 928.01,584.79 923.7,589.42C920.25,593.13 917.06,597.05 913.83,600.93C908.96,606.8 903.57,612.16 896.83,616.24C885.42,623.14 873.36,624.67 860.47,620.08C853.12,617.47 846.64,613.62 840.58,609.05C837.73,606.9 834.71,604.94 831.7,602.85C823.51,607.34 816.18,612.05 810.64,618.83C807.98,622.09 805.41,625.42 802.53,628.5C796.59,634.84 789.4,639.3 780.2,640.68C769.69,642.25 760.2,640.07 753.09,632.8C746.97,626.54 741.52,619.61 736.62,612.48C731.48,605 733.54,595.52 740.5,589.76C747.53,583.95 758.28,583.4 765.94,588.68C768.46,590.42 770.55,592.69 773.72,595.51C774,594.92 774.19,594.09 774.7,593.48C786.51,579.31 801.61,569.02 819.4,562.26C827.14,559.32 835.34,559.8 843.26,562.4C852.86,565.55 861.43,570.34 869.09,576.54C870.41,577.61 871.88,578.51 873.91,579.92C878.52,574.53 883.08,569.24 887.88,563.68Z" style="fill:currentColor;fill-rule:nonzero;"/>
            <path d="M866.68,703.94C874.22,706.79 881.32,709.56 888.27,712.28C895.02,705 901.88,697.35 909.04,689.96C916.16,682.6 924.42,676.5 934.07,672.11C945.21,667.05 956.8,665.16 969.05,667.72C974.83,668.92 979.91,671.49 984.78,674.52C987.7,676.33 990.7,678.08 993.86,679.49C1003.33,683.71 1012.67,683.11 1021.72,678.29C1026.43,675.78 1031.44,674.29 1036.9,674.89C1051.73,676.51 1060.31,689.92 1054.83,702.8C1051.95,709.59 1046.42,713.88 1039.49,716.97C1013.65,728.47 988.82,725.82 964.72,712.56C963.51,711.89 962.26,711.21 961.23,710.34C958.71,708.21 956.04,708.33 953.49,709.98C950.18,712.12 946.81,714.28 943.9,716.84C936.58,723.28 930.47,730.67 925.01,738.52C922.91,741.54 920.93,744.65 918.6,747.51C907.77,760.84 890.29,763.95 874.8,755.36C870.11,752.76 865.43,750.1 860.92,747.25C856.34,744.35 852.15,744.66 847.72,747.54C841.6,751.51 836.12,756.06 831.32,761.35C826.9,766.23 822.4,771.06 817.74,775.75C813.16,780.36 807.78,784.04 801.58,786.66C788.04,792.38 775.51,791.07 764.01,782.2C761.71,780.42 759.38,778.67 757,776.99C748.24,770.8 746.23,759.75 752.34,751.17C758.26,742.85 769.95,740.15 779.44,744.93C781.12,745.78 782.72,746.76 784.47,747.75C790.69,741.05 796.67,734.41 802.89,727.96C812.67,717.83 824.21,709.86 838.04,705.08C847.22,701.88 856.73,701.93 866.68,703.94Z" style="fill:currentColor;fill-rule:nonzero;"/>
            <path d="M863.24,474.34C860.35,478.47 857.83,482.41 854.92,486.08C853.06,488.43 850.79,490.57 848.4,492.48C837.97,500.82 824.92,501.4 813.85,493.82C809.91,491.12 806.49,487.77 802.46,484.41C798.14,489.47 795.44,495.12 794.51,501.51C794.27,503.12 794.31,504.77 794.05,506.38C792.49,516.01 784.77,522.65 774.89,522.92C764.8,523.19 756.42,516.77 754.29,507.18C753.07,501.67 753.06,496.17 754.08,490.63C756.11,479.6 759.47,469.01 766.2,459.56C772.5,450.72 780.74,443.91 791.79,440.69C803.38,437.32 814.48,438.54 824.58,445.21C825.57,445.86 826.57,446.5 827.76,447.27C831.27,443.28 834.61,439.34 838.13,435.53C846.29,426.69 855.1,418.44 865.29,411.58C871.95,407.1 879.24,403.88 887.54,403.06C899.6,401.87 910.27,405.05 919.56,412.13C923.75,415.33 927.68,418.84 932,422.43C934.1,420.97 936.18,419.75 937.95,418.23C948.39,409.25 960.28,402.26 973,396.46C978.5,393.95 984.47,393.39 990.57,393.75C996.03,394.07 1001.49,394.35 1006.96,394.48C1018.99,394.78 1029.33,403.51 1030.13,414.16C1030.95,425 1022.42,434.82 1010.09,436.39C1004.56,437.09 998.82,436.75 993.21,436.43C989.67,436.23 986.55,436.66 983.73,438.6C978.63,442.1 973.58,445.65 968.47,449.13C963.5,452.51 958.8,456.37 953.43,459.06C935.89,467.86 917.08,466.61 901.86,453.9C898.6,451.18 895.46,448.32 891.88,445.19C880.85,453.69 870.98,462.86 863.24,474.34Z" style="fill:currentColor;fill-rule:nonzero;"/>
            <path d="M464.4,412.35C467.84,417.69 471.07,422.73 474.56,428.19C478,426.5 481.18,424.85 484.44,423.36C491.08,420.32 497.58,416.96 504.45,414.47C529.09,405.53 549.8,415.19 561.43,430.65C566.65,437.58 570.85,445.17 575.47,452.49C576.35,453.88 577.03,455.38 577.97,457.15C585.98,455.63 593.9,454.18 601.79,452.61C605.93,451.78 609.97,450.52 614.13,449.82C625.95,447.84 637.2,454.47 640.23,464.97C642.68,473.47 639.39,486.25 625.41,490.32C617.18,492.72 608.67,494.3 600.28,496.24C595.33,497.38 590.23,498.15 585.43,499.69C570.98,504.34 558.54,501.53 548.33,491.24C544.69,487.57 541.78,483.18 539.07,478.83C534.76,471.92 531.16,464.62 526.76,457.76C523.16,452.15 522.73,452.15 516.23,455.13C509.28,458.32 502.56,461.96 495.69,465.3C491.32,467.42 486.96,469.62 482.39,471.34C466.12,477.43 452.03,473.39 442.26,459.86C439.23,455.66 436.67,451.17 433.88,446.82C432.9,445.29 431.86,443.79 430.52,441.79C428.69,443.05 427.05,444.15 425.43,445.29C422.34,447.46 419.42,449.89 416.16,451.8C400.55,460.96 383.38,458.55 371.49,445.48C368.21,441.87 365.49,437.81 362.52,433.97C361.62,432.81 360.71,431.67 359.7,430.38C356.29,432.78 354.96,435.7 354.4,439.26C352.93,448.62 344.45,455.77 334.7,456.22C322.6,456.78 312.92,447.84 313.27,436.07C313.5,428.65 315.73,421.57 319.25,414.91C324.15,405.65 330.84,397.65 340.4,392.21C351.05,386.15 362.57,383.79 374.89,387.41C381.46,389.34 386.97,392.69 390.9,398.07C393.84,402.09 396.89,406.05 400.04,410.25C401.43,409.39 402.59,408.71 403.71,407.98C410.99,403.21 419.1,400.12 427.59,397.68C439.37,394.3 449.13,397.79 457.81,404.89C460.29,406.91 462.08,409.65 464.4,412.35Z" style="fill:currentColor;fill-rule:nonzero;"/>
            <path d="M441,737.05C423.08,744.57 405.99,738.07 396.33,727.04C391.78,721.85 386.67,717.07 381.73,712.18C380.07,710.54 378.13,709.13 376.19,707.52C368.22,712.29 360.45,716.79 352.87,721.56C350.73,722.9 349.04,724.93 347.38,726.82C340.01,735.19 324.2,734.35 316.69,727.02C308.38,718.89 306.24,705.53 316.9,695.3C321.27,691.11 326.53,687.65 331.7,684.27C337.89,680.22 344.42,676.6 350.81,672.81C370.1,661.38 387.26,662.05 404.98,675.42C410.42,679.52 415.08,684.51 420.03,689.16C422.36,691.35 424.5,693.7 426.81,696.06C433.5,692.04 439.67,688.25 445.94,684.59C452.38,680.84 458.94,677.18 466.47,675.7C486.54,671.75 503.62,677.01 517.22,691C522.5,696.43 526.57,702.86 531.17,708.84C532.19,710.17 533.12,711.55 534.41,713.34C535.62,712.17 536.63,711.15 537.69,710.16C541.79,706.35 545.52,702.08 550.09,698.83C562.41,690.07 576.02,688.38 590.55,693.82C600.08,697.39 608.19,702.75 614.69,710.11C619.84,715.94 624.35,722.16 627.58,729.13C629.11,732.42 630.91,735.61 632.59,738.85C637.46,748.29 634.06,758.91 624.56,763.9C615.18,768.83 603.88,766.33 597.5,757.75C594.9,754.26 592.84,750.43 590.27,746.92C586.5,741.77 582.39,736.88 575.59,734.18C574.17,735.66 572.78,737.11 571.4,738.56C568.13,741.99 565.06,745.61 561.55,748.82C558.05,752.02 554.39,755.2 550.32,757.72C537.78,765.51 523.7,764.6 512.1,755.65C506.59,751.4 502.6,746.02 498.82,740.48C494.67,734.41 490.53,728.34 486.36,722.29C485.6,721.19 484.78,720.11 483.85,719.14C480.94,716.1 478.37,715.52 474.47,717.62C469.13,720.49 464.01,723.7 458.78,726.75C452.99,730.13 447.17,733.51 441,737.05Z" style="fill:currentColor;fill-rule:nonzero;"/>
            <path d="M596.93,620.42C594.23,620.91 591.99,621.39 589.71,621.66C577.59,623.1 566.9,620.02 557.88,612.48C552.38,607.89 547.23,602.93 541.96,598.1C539.83,596.15 537.66,594.21 535.73,592.09C533.78,589.94 531.66,589.74 529.2,591.05C526.76,592.36 524.26,593.6 521.98,595.11C519.54,596.72 517.26,598.55 515.02,600.39C495.5,616.42 471.28,614.46 452.23,601.7C448.97,599.52 446.07,596.78 443.39,593.99C439.41,589.84 435.89,585.32 431.94,581.14C430,579.09 427.74,577.16 425.27,575.69C420.84,573.06 416.47,572.61 411.55,575.63C404.8,579.78 397.56,583.26 390.44,586.87C369.53,597.48 353.98,595.54 336.44,580.48C328.37,573.55 322.45,565.41 318.84,555.81C317,550.92 316.13,546 317.73,540.92C320.2,533.07 327.66,527.66 336.43,527.29C345.71,526.89 354.13,531.96 357.22,540.4C358.48,543.85 360.49,546.39 363.45,548.62C365.7,550.32 367.56,550.49 370.08,549.09C376.28,545.64 382.62,542.4 388.93,539.12C392.01,537.52 395.1,535.93 398.28,534.52C406.82,530.73 415.73,529.57 425.11,531.3C442.19,534.44 456.68,541.52 467.37,554.53C469.72,557.39 471.95,560.33 474.37,563.13C475.91,564.91 477.53,566.68 479.41,568.13C482.19,570.28 483.45,570.12 486.36,568.01C491.62,564.18 496.65,560.04 502.21,556.62C509.62,552.06 517.89,549.31 526.76,547.96C543.57,545.4 556.77,551.12 567.87,562.36C573.11,567.66 578.68,572.68 583.98,577.93C585.74,579.67 587.49,579.55 589.71,578.98C600.56,576.19 611.63,575.44 622.8,576.67C626.28,577.05 629.83,577.65 633.1,578.76C643.29,582.24 649.2,591.77 647.46,601.33C645.64,611.31 636.8,618.42 625.71,618.75C624.12,618.8 622.51,618.82 620.95,618.58C612.92,617.39 605.09,618.16 596.93,620.42Z" style="fill:currentColor;fill-rule:nonzero;"/>
        </g>
    </g>
</svg>
