<?xml version="1.0" encoding="UTF-8" standalone="no"?>
<!DOCTYPE svg PUBLIC "-//W3C//DTD SVG 1.1//EN" "http://www.w3.org/Graphics/SVG/1.1/DTD/svg11.dtd">
<svg width="100%" height="100%" viewBox="0 0 1380 1372" version="1.1" xmlns="http://www.w3.org/2000/svg" xmlns:xlink="http://www.w3.org/1999/xlink" xml:space="preserve" xmlns:serif="http://www.serif.com/" style="fill-rule:evenodd;clip-rule:evenodd;stroke-linejoin:round;stroke-miterlimit:2;">
    <g id="Layer_5">
        <g>
            <path d="M1350.47,715.72C1349.23,736.23 1347.19,755.79 1344.43,775.31C1341.87,793.37 1338.9,811.32 1335.15,829.18C1329.64,855.41 1322.41,881.16 1313.49,906.38C1300.45,943.25 1284.8,979.01 1265.33,1013.01C1244.85,1048.77 1221.75,1082.66 1195.15,1114.25C1174.48,1138.81 1152.43,1161.94 1128.59,1183.34C1110.09,1199.95 1090.39,1215.17 1070.18,1229.65C1042.52,1249.47 1013.24,1266.68 982.75,1281.73C953.83,1296 923.99,1308.05 893.26,1317.94C868.86,1325.79 844.27,1332.99 819.1,1337.7C795.86,1342.05 772.56,1345.97 748.82,1347.52C726.55,1348.97 704.35,1351.29 682,1350.57C651.16,1349.58 620.49,1347.14 589.92,1342.43C526.39,1332.64 465.92,1313.56 407.77,1286.32C349.07,1258.83 296.3,1222.78 248.16,1179.56C205.62,1141.36 169.08,1098.12 137.73,1050.41C110.66,1009.21 88.38,965.45 71.43,919.26C56.91,879.7 45.88,839.11 39.14,797.24C32.03,753.06 28.04,708.84 29.37,664.17C30.03,641.91 32.76,619.83 35.6,597.73C38.8,572.82 43.23,548.21 49.18,523.86C56.49,493.95 66.05,464.75 77.46,436.14C91.34,401.32 108.39,368.12 127.74,336.06C152.06,295.75 181.14,259.04 213.42,224.93C258.68,177.1 310.6,137.7 367.75,105.04C409.55,81.15 453.92,63.3 499.67,48.89C534.76,37.84 570.73,30.11 607.33,26C643.97,21.88 680.67,19.83 717.65,22C740.46,23.34 763.29,23.89 785.85,27.74C803.53,30.76 821.3,33.56 838.73,37.71C867.27,44.52 895.22,53.4 922.76,63.64C944.13,71.59 964.97,80.72 985.38,90.81C1020.27,108.05 1053.15,128.66 1084.27,151.99C1123.45,181.36 1159.03,214.53 1190.94,251.8C1223.22,289.51 1250.5,330.5 1274.07,374.02C1289.98,403.4 1302.74,434.25 1313.83,465.72C1325.19,497.98 1333.79,531.06 1339.92,564.72C1348.94,614.37 1352.09,664.46 1350.47,715.72ZM1001.47,388.35C999.89,434.67 999.9,481.01 998.4,527.34C996.46,587.4 999.82,647.56 996.33,707.63C995.91,714.79 998.59,717 1005.66,716.98C1090.99,716.79 1176.32,716.78 1261.65,716.95C1269.02,716.97 1272.23,714.53 1271.95,707.1C1271.17,686.25 1272.74,665.4 1270.51,644.51C1266.55,607.39 1261.62,570.57 1251.89,534.37C1241.42,495.43 1227.21,458.07 1209.29,422.03C1187.81,378.85 1161.03,339.23 1129.79,302.51C1101.86,269.67 1069.81,241.29 1035.96,214.87C1026.24,207.29 1015.5,201.01 1004.3,193.51C1000.76,259.14 1001.74,322.9 1001.47,388.35ZM376.57,407.25C376.35,337.34 377.15,267.42 373.97,197.61C368.61,197.14 365.83,199.94 362.85,201.97C348.44,211.73 334.87,222.54 321.41,233.61C294.36,255.84 269.32,280.04 246.9,306.82C218.42,340.85 193.52,377.4 173.45,417.07C156.2,451.18 141.71,486.38 131.54,523.35C123.9,551.11 117.68,579 114.12,607.66C110.2,639.19 107.21,670.66 107.84,702.44C108.07,714.04 109.53,715.59 120.57,715.6C203.32,715.68 286.08,715.74 368.83,715.78C380.97,715.79 382.66,714.5 381.46,702.51C377.93,667.4 380.16,632.17 378.8,597C376.39,534.37 379.62,471.62 376.57,407.25ZM550.91,395.48C528.53,418.37 506.28,441.4 483.66,464.06C478.74,468.99 479.29,471.91 483.96,476.52C551.05,542.64 618.04,608.87 684.87,675.25C690.17,680.51 693.74,679.69 698.34,674.82C708.35,664.2 718.64,653.84 728.83,643.4C776.29,594.78 823.87,546.26 871.14,497.45C880.39,487.9 890.77,479.32 898.99,468.11C896.64,465.29 894.83,462.74 892.64,460.57C862.35,430.43 831.96,400.39 801.68,370.24C765.96,334.67 730.24,299.09 694.76,263.28C690.18,258.65 687.17,258.69 682.82,263.05C669.74,276.15 656.3,288.9 643.25,302.04C612.69,332.81 582.27,363.76 550.91,395.48ZM724.6,1267.49C726.24,1269.27 728.3,1270.52 730.68,1270.04C742.19,1267.76 754.01,1267.92 765.5,1265.95C789.87,1261.77 814.3,1257.89 838.29,1251.49C865.64,1244.19 892.06,1234.55 917.98,1223.32C922.88,1221.2 924.8,1218.18 924.88,1212.87C925.21,1191.71 925.1,1170.5 926.71,1149.43C928.09,1131.43 923.44,1118.26 909.42,1105.29C873.31,1071.88 839.17,1036.34 804.37,1001.51C800.42,997.55 796.23,995.85 790.68,995.9C772.07,996.08 753.46,995.88 734.85,995.91C723.84,995.93 723.16,996.63 723.14,1007.51C723.08,1051.77 723.46,1096.01 724.6,1140.26C725.37,1170.25 726.07,1200.32 723.39,1230.36C722.33,1242.23 722.25,1254.35 724.6,1267.49ZM650.91,1268.3C653.44,1265.45 653.17,1261.94 653.17,1258.52C653.18,1174.33 653.11,1090.14 653.29,1005.96C653.31,998.62 650.93,995.65 643.41,995.79C625.95,996.13 608.48,995.98 591.01,995.87C585.85,995.84 581.69,997.28 577.95,1001.05C537.27,1042.02 496.52,1082.92 455.68,1123.72C452.81,1126.59 451.42,1129.49 451.51,1133.51C452.17,1160.39 452.73,1187.27 453.24,1214.15C453.31,1217.67 454.48,1220.18 457.79,1221.65C482.27,1232.53 507.24,1242.21 533.02,1249.43C559.89,1256.96 587.4,1261.84 614.94,1266.23C626.42,1268.07 638.18,1268.14 650.91,1268.3ZM936.8,259.44C937.36,227.97 937.79,196.5 938.61,165.05C938.77,159.02 936.82,155.55 931.35,153.12C888.49,134.16 844.57,118.59 798.18,110.86C776.28,107.21 754.53,102.33 732.08,102.66C725.46,102.76 723.15,104.83 722.97,111.59C722.51,128.49 725.71,145.2 724.86,162.11C724.36,172.11 724.81,182.15 724.6,192.17C724.51,196.75 725.8,200.38 729.14,203.67C744.79,219.09 760.26,234.68 775.82,250.18C825.19,299.38 874.55,348.58 923.98,397.72C926.45,400.18 928.41,403.91 934.97,402.91C935.07,355.79 934.82,308.44 936.8,259.44ZM543.36,308.91C554.17,297.13 565.65,286.03 577.02,274.8C600.93,251.18 624.3,227.02 648.06,203.25C651.8,199.51 653.32,195.6 653.28,190.34C653.08,164.29 652.95,138.24 653.33,112.2C653.44,104.76 651.43,102.08 643.64,102.59C611.96,104.64 581.04,110.8 550.16,117.83C514.36,125.98 480.72,139.8 447.16,154.1C441.22,156.63 439.53,160.2 439.36,166.48C438.72,189.97 441.03,213.34 441.24,236.8C441.73,290.29 439.61,343.8 442.87,397.26C443.05,400.26 442.09,403.61 445.96,406.64C451.73,400.97 457.65,395.31 463.41,389.49C489.76,362.9 516.07,336.26 543.36,308.91ZM408.82,1059.52C411.63,1061.79 412.5,1066.17 417.39,1066.97C420.96,1063.84 425.13,1060.78 428.57,1057.05C457.57,1025.57 489.19,996.71 518.82,965.87C527.21,957.14 527.24,956.84 518.64,948.29C495.14,924.92 471.9,901.29 448.16,878.18C437.62,867.92 428.83,855.73 416.3,847.66C411.6,849.84 408.45,853.19 405.24,856.4C388.07,873.53 370.94,890.71 353.81,907.89C339.28,922.46 324.86,937.13 310.23,951.6C306.02,955.76 306.31,958.79 310.56,962.87C323.05,974.87 335.15,987.28 347.48,999.45C367.57,1019.25 387.72,1039 408.82,1059.52ZM199.17,786.79C175.14,786.78 151.1,786.75 127.07,786.78C122.25,786.79 117.25,786.99 118.65,794.09C120.9,805.52 122.67,817.1 125.79,828.3C134.5,859.52 144.2,890.43 157.2,920.23C159.78,926.14 162.89,928.54 169.32,928.42C187.34,928.08 205.4,927.61 223.38,928.56C234.77,929.16 242.54,925.09 250.33,917.2C290.56,876.42 331.28,836.1 371.82,795.62C373.75,793.69 376.67,792.26 374.89,786.79L199.17,786.79ZM888.35,990.83C914.13,1016.5 939.92,1042.18 965.03,1067.18C999.24,1033.36 1032.1,1000.5 1065.45,968.13C1077.74,956.2 1076.55,957.77 1064.9,946.08C1033.58,914.65 1002.21,883.28 971.09,851.66C966.27,846.76 963,846.98 958.53,851.76C950.32,860.53 941.8,869 933.28,877.48C909.33,901.32 885.49,925.25 861.23,948.77C855.28,954.54 855.12,958.39 861.26,963.96C870.37,972.23 878.78,981.25 888.35,990.83ZM1259.84,803.85C1260.68,799.12 1261.52,794.39 1262.82,787.03C1176.32,786.55 1090.6,786.94 1004.23,786.77C1005.05,792.14 1007.45,793.8 1009.44,795.78C1024.86,811.12 1040.32,826.43 1055.66,841.86C1081.47,867.84 1107.16,893.94 1133.02,919.87C1136.96,923.82 1140.59,928.39 1147.29,928.34C1169.05,928.16 1190.81,928.23 1212.58,928.31C1217.6,928.33 1220.55,925.89 1222.29,921.42C1227.97,906.81 1234.02,892.33 1239.35,877.59C1247.86,853.99 1254.04,829.7 1259.84,803.85ZM726.32,928.05C743.48,928.15 760.65,928.01 777.81,928.47C784.34,928.65 789.16,926.67 793.75,922.07C834.77,881.01 875.99,840.14 917.05,799.11C919.76,796.4 923.41,794.13 924,789.79C921.98,786.16 918.56,786.85 915.54,786.85C854.59,786.8 793.65,786.87 732.7,786.72C725.45,786.7 722.86,789.08 722.93,796.69C723.28,837.6 723.08,878.52 723.13,919.44C723.14,922.21 722.4,925.25 726.32,928.05ZM653.17,798.14C653.75,790.27 650.48,786.69 642.21,786.72C583.24,786.89 524.27,786.78 465.3,786.83C462.04,786.83 458.33,786.17 456.34,789.74C456.51,792.62 458.54,793.8 460.18,795.4C475,809.89 490.22,824.02 504.39,839.13C530.11,866.57 557.44,892.4 583.44,919.55C589.53,925.91 596.11,929.13 605.29,928.55C617.83,927.75 630.49,927.94 643.06,928.5C650.98,928.85 653.42,926.18 653.35,918.24C652.99,878.73 653.18,839.23 653.17,798.14ZM536.05,715.86L627.45,715.86C620.22,702.77 452.58,538.81 445.95,537.5C443.73,540.87 444.79,544.69 444.71,548.3C443.5,601.22 446.93,654.09 446.31,706.99C446.23,713.86 448.81,715.92 455.36,715.87C481.67,715.67 508,715.83 536.05,715.86ZM774.31,692.75C768.03,699.96 760.21,705.86 755.15,714.13C758.3,717.46 761.89,716.8 765.22,716.8C817.33,716.85 869.45,716.72 921.56,716.97C929.1,717.01 931.77,714.25 931.68,706.96C931.44,687.78 931.39,668.59 931.64,649.41C932.09,615.94 930.35,582.44 933.19,548.99C933.6,544.1 934.62,538.77 931.72,534.18C928.21,533.89 926.84,536.53 925.14,538.23C912.03,551.31 898.98,564.47 886.06,577.74C849.07,615.76 812.14,653.84 774.31,692.75ZM262.56,1082.11C298.92,1121.07 338.83,1155.62 386.52,1184.04C386.52,1165.84 386.6,1150.19 386.45,1134.53C386.42,1131.24 384.14,1128.86 381.8,1126.61C372.99,1118.12 364.23,1109.58 355.54,1100.96C323.06,1068.7 290.5,1036.51 258.26,1004.02C251.77,997.48 245.11,993.83 235.63,994.69C227.12,995.46 218.48,994.82 209.9,994.88C206.81,994.9 203.06,994.19 201.41,997.54C199.68,1001.04 202.15,1004.13 204.05,1006.92C221.78,1032.84 240.33,1058.13 262.56,1082.11ZM1001.84,1126.54C992.34,1133.55 989.82,1143.13 991.15,1154.39C991.68,1158.91 991.03,1163.55 991.28,1168.11C991.57,1173.34 989.88,1178.83 993.18,1184.98C1006.14,1176.39 1019.08,1168.69 1031.08,1159.7C1062.89,1135.86 1092.48,1109.45 1119.4,1080.14C1140.71,1056.94 1159.23,1031.58 1176.95,1005.61C1178.67,1003.08 1180.98,1000.13 1179.23,996.96C1177.62,994.04 1174.14,994.88 1171.37,994.86C1160.78,994.78 1150.19,994.94 1139.61,994.79C1134.95,994.72 1131.73,996.62 1128.44,999.92C1086.59,1041.9 1044.58,1083.73 1001.84,1126.54Z" style="fill:currentColor;fill-rule:nonzero;"/>
        </g>
    </g>
</svg>
