<?xml version="1.0" encoding="UTF-8" standalone="no"?>
<!DOCTYPE svg PUBLIC "-//W3C//DTD SVG 1.1//EN" "http://www.w3.org/Graphics/SVG/1.1/DTD/svg11.dtd">
<svg width="100%" height="100%" viewBox="0 0 1380 1372" version="1.1" xmlns="http://www.w3.org/2000/svg" xmlns:xlink="http://www.w3.org/1999/xlink" xml:space="preserve" xmlns:serif="http://www.serif.com/" style="fill-rule:evenodd;clip-rule:evenodd;stroke-linejoin:round;stroke-miterlimit:2;">
    <g id="Layer_4">
        <g>
            <path d="M533.25,793.86C566.55,761.64 599.24,729.66 632.3,698.07C679.27,653.2 724.26,606.39 769.23,559.55C806.81,520.4 844.86,481.7 882.34,442.45C908.06,415.51 935.41,390.35 967.53,371.52C998.76,353.22 1033.06,343.55 1069.23,338.4C1099.07,334.16 1128.24,335.74 1157,341.52C1193.42,348.84 1226.89,364.18 1256.49,387.27C1292.96,415.71 1319.78,451.61 1336.62,494.37C1351.38,531.86 1357.16,571.07 1355.5,611.67C1354.19,643.69 1347.62,674.33 1337.81,704.53C1330.41,727.31 1317.21,746.99 1304.43,766.93C1286.92,794.26 1261.53,814.21 1239.17,836.96C1197.87,878.96 1156,920.41 1114.26,961.98C1085.89,990.24 1057.18,1018.17 1028.89,1046.51C967.06,1108.44 904.9,1170.06 843.9,1232.8C816.64,1260.84 787.72,1286.61 754.93,1307.63C734.3,1320.85 711.37,1329.7 687.33,1335.62C664.51,1341.25 641.63,1345.86 618.07,1345.64C569.67,1345.2 524.68,1332.86 483.14,1307.51C431.81,1276.19 398.58,1230.54 378.21,1175.19C363.05,1134.02 361.01,1091.04 365.21,1047.55C368.54,1013.03 377.81,980.09 393.19,949.39C406.48,922.86 423.4,898.5 445.67,877.98C475.28,850.68 503.81,822.23 533.25,793.86ZM743.09,1148.91C751.71,1140.16 760.27,1131.34 768.97,1122.66C809.18,1082.53 849.37,1042.39 889.74,1002.42C894.68,997.53 894.95,993.96 890.08,988.84C869.8,967.54 849.9,945.89 829.71,924.5C797.74,890.64 765.7,856.84 733.57,823.13C726.35,815.55 719.81,807.22 711.24,800.99C698.15,810.4 687.63,821.8 677.3,833.1C634.62,879.78 587.22,921.62 542.3,965.98C517.82,990.15 500.02,1017.81 494.48,1051.96C489.66,1081.63 491.94,1110.67 503.64,1139.21C524.41,1189.86 572.66,1215.85 623.57,1213.37C651.59,1212 677.82,1202.94 701.53,1187.47C717.25,1177.23 728.67,1162.35 743.09,1148.91Z" style="fill:currentColor;fill-rule:nonzero;"/>
            <path d="M631.32,220.93C595.19,209.62 558.89,204.11 521.76,206.87C495.87,208.8 470.29,212.94 445.48,221.33C409.2,233.6 375.71,250.89 345.61,274.64C319.14,295.52 296.74,320.1 278.27,348.3C260.18,375.93 246.06,405.33 237.49,437.33C234.84,447.23 231.56,456.93 230.14,467.17C228.84,476.47 229.93,478.38 239.72,478.22C264.34,477.82 288.99,477.84 313.56,476.41C347.91,474.41 382.3,476.09 416.61,474.58C469.83,472.25 523.07,472.13 576.3,471.04C624.37,470.06 672.4,467.73 720.51,467.85C740.82,467.9 761.14,466.83 781.46,466.29C784.48,466.21 787.51,466.28 790.63,466.28C790.5,470.74 788.11,472.51 786.13,474.45C747.33,512.47 708.11,550.07 669.99,588.77C661,597.89 652.13,601.02 640.01,601.08C602.79,601.28 565.61,603.2 528.37,603.44C468.54,603.83 408.77,606.95 348.91,607.21C318.31,607.34 287.66,607.93 257.04,608.46C235.89,608.82 234.34,611.59 241.77,631.46C253.92,663.97 269.13,694.76 290.42,722.36C323.67,765.47 364.57,798.82 414.79,820.4C418.63,822.05 422.31,824.07 427,826.38C417.02,836.32 407.82,845.6 398.5,854.75C377.81,875.09 364.23,900.35 350.11,925.16C346.43,931.64 343.56,931.93 337.39,928.78C279.38,899.19 231.08,857.85 191.13,806.83C158.5,765.16 134.3,718.8 117.9,668.38C108.26,638.73 101.18,608.43 98.18,577.55C95.56,550.6 94.47,523.46 96.85,496.18C98.78,473.96 101.26,451.97 105.82,430.15C114.46,388.81 128.72,349.47 148.42,312.22C171.04,269.47 199.84,231.18 234.99,197.88C279.7,155.53 330.66,123.15 388.65,101.85C419.88,90.38 452.03,82.51 484.83,78.52C515.16,74.82 545.81,75.1 576.47,77.29C596.23,78.71 615.46,82.46 634.75,86.22C657.45,90.64 679.18,98.3 700.75,106.53C741.64,122.14 778.47,144.68 812.76,171.51C854.81,204.41 888.83,244.48 916.64,289.94C924.54,302.85 931.78,316.09 938.19,331C899.76,354.17 865.8,382.88 834.83,417.51C828.19,399.15 820.96,383.72 812.55,368.85C795.97,339.53 775.6,313.21 750.9,290.27C721.02,262.53 686.56,242.13 648.96,226.82C643.42,224.61 637.62,223.06 631.32,220.93Z" style="fill:currentColor;fill-rule:nonzero;"/>
        </g>
    </g>
</svg>
