<?xml version="1.0" encoding="UTF-8" standalone="no"?>
<!DOCTYPE svg PUBLIC "-//W3C//DTD SVG 1.1//EN" "http://www.w3.org/Graphics/SVG/1.1/DTD/svg11.dtd">
<svg width="100%" height="100%" viewBox="0 0 1380 1372" version="1.1" xmlns="http://www.w3.org/2000/svg" xmlns:xlink="http://www.w3.org/1999/xlink" xml:space="preserve" xmlns:serif="http://www.serif.com/" style="fill-rule:evenodd;clip-rule:evenodd;stroke-linejoin:round;stroke-miterlimit:2;">
    <style>
    :root {
      color-scheme: dark light;
    }
  </style>
    <g id="Layer_1" transform="matrix(1,0,0,1,-2.00596,50.0772)">
        <g>
            <path d="M1151.47,840.94C1131.47,905.97 1098.87,963.52 1054.62,1014.88C1055.54,1016.22 1056.24,1017.44 1057.14,1018.51C1075.67,1040.54 1094.22,1062.55 1112.78,1084.56C1120.08,1093.22 1126.33,1102.47 1129.12,1113.64C1135.87,1140.7 1122.13,1168.31 1096.14,1179.77C1086.6,1183.98 1076.68,1186.74 1066.1,1185.27C1050.93,1183.16 1037.55,1177.18 1027.13,1165.74C1019.94,1157.85 1013.28,1149.48 1006.4,1141.32C994.38,1127.06 982.38,1112.78 970.37,1098.52C969.21,1097.14 967.98,1095.83 966.42,1094.09C885.48,1148.89 796.27,1178.31 698.48,1180.55C600.6,1182.79 510.16,1157.45 426.84,1105.52C425.42,1107.17 424.11,1108.63 422.87,1110.15C407.44,1129.11 391.97,1148.03 376.63,1167.05C370.92,1174.14 364.8,1180.83 357.18,1185.81C347.38,1192.2 336.38,1194.87 324.68,1194.91C288.09,1195.03 258.03,1159.7 267.67,1122.68C270,1113.75 274.47,1105.97 280.25,1098.85C297.59,1077.48 314.9,1056.1 332.22,1034.71C333.46,1033.17 334.65,1031.6 336.1,1029.75C334.44,1027.89 332.88,1026.17 331.34,1024.43C301.1,990.39 275.62,953.14 256.2,911.92C242.98,883.86 232.31,854.83 225,824.63C217.53,793.75 213.18,762.46 211.91,730.68C209.48,670.01 218.86,611.27 239.31,554.17C251.83,519.22 268.67,486.52 288.79,455.36C309.24,423.68 333.54,395.33 360.85,369.45C361.63,368.71 362.61,368.17 363.97,367.2C340.34,337.29 315.57,309.3 291.04,279.55C289.88,282.34 288.69,284.13 288.41,286.06C287.21,294.48 286.26,302.93 285.24,311.37C284.14,320.52 282.89,329.66 282.01,338.84C280.91,350.36 279.95,361.89 279.25,373.44C278.77,381.36 278.83,389.32 278.64,398.01C276.37,397.88 274.47,397.92 272.62,397.63C258.69,395.48 247.65,388.39 238.9,377.56C218.98,352.92 206.27,325.27 202.85,293.44C200.17,268.5 201.05,243.91 207.19,219.57C212.1,200.09 217.01,180.61 222.16,161.19C228.47,137.39 246.01,122.16 270.45,118.83C293.83,115.64 313.44,122.72 328.68,140.74C352.52,168.94 376.07,197.39 399.76,225.71C410.1,238.07 420.51,250.37 430.82,262.75C438.93,272.48 446.95,282.29 455.02,292.05C456.39,293.71 457.84,295.3 459.57,297.29C532.43,257.42 610.17,236.71 693.12,236.24C775.9,235.77 853.76,255.19 926.33,294.62C927.2,294.19 927.83,294.07 928.14,293.7C935.16,285.17 942.16,276.64 949.11,268.06C953.21,263 957.15,257.81 961.26,252.76C981.03,228.46 1000.85,204.21 1020.6,179.9C1031.67,166.28 1042.54,152.49 1053.69,138.93C1063.1,127.48 1075.09,119.9 1089.77,117.42C1108,114.33 1125.14,117.28 1140.27,128.56C1148.93,135.02 1155.14,143.47 1158.41,153.74C1167.02,180.84 1174.81,208.21 1179.82,236.22C1184.81,264.07 1182.79,291.82 1176,319.18C1172.84,331.92 1166.93,343.63 1160.14,354.79C1155.73,362.04 1150.96,369.11 1145.78,375.83C1137.64,386.38 1126.92,393.15 1113.68,395.59C1111.77,395.94 1109.81,396.02 1107.19,396.3C1106.91,392.1 1106.49,388.37 1106.46,384.64C1106.28,364.51 1104.55,344.57 1100.73,324.76C1099.02,315.91 1098.73,306.79 1097.67,297.8C1097.14,293.31 1096.43,288.84 1095.57,284.4C1095.21,282.54 1094.23,280.79 1093.5,278.9C1089.31,281.55 1030.88,352.93 1023.53,364.21C1024.68,365.37 1025.88,366.64 1027.15,367.84C1052.5,391.83 1075.09,418.19 1094.29,447.33C1131.06,503.12 1155.41,563.91 1165.92,629.97C1177.21,701.18 1172.57,771.43 1151.47,840.94ZM980.69,412.06C981.7,411.13 982.71,410.19 984.06,408.95C967.37,393.29 949.92,379.33 931.07,366.86C929.3,368.04 927.78,369 926.31,370.03C889.65,395.71 854.65,423.45 821.29,453.32C784.85,485.94 749.29,519.41 716.19,555.46C692.19,581.6 668.55,608 647.01,636.28C623.73,666.85 602.77,698.98 581.93,731.2C563.33,759.95 546.49,789.71 531.97,820.77C517.69,851.31 504.96,882.42 494.94,914.64C480.69,960.48 471.45,1007.23 468.36,1055.18C468.1,1059.28 469.06,1061.69 472.84,1063.84C488.29,1072.61 504.05,1080.7 520.38,1087.68C521.82,1088.3 523.33,1088.74 525.16,1089.39C525.51,1087.82 525.86,1086.64 526.04,1085.44C535.54,1021.8 555.46,961.22 580.16,902.09C592.87,871.66 608.3,842.52 624.22,813.67C641.82,781.78 661.75,751.33 682.26,721.27C704.01,689.39 728.04,659.22 752.51,629.43C778.39,597.93 806.48,568.42 835,539.34C867.1,506.61 901.61,476.48 936.62,446.94C950.75,435.03 965.56,423.96 980.69,412.06ZM895.63,634.45C866.7,665.18 839.12,697.03 814.1,731.08C792,761.14 770.69,791.69 751.76,823.87C734.68,852.9 718.46,882.35 704.23,912.92C687.48,948.92 673.02,985.77 661.28,1023.69C652.16,1053.14 645.38,1083.12 641.57,1113.74C641.33,1115.63 641.29,1117.55 641.16,1119.36C651.07,1121.4 678.59,1122.69 684.62,1121.44C685.23,1119.67 685.87,1117.8 686.53,1115.93C690.11,1105.68 693.51,1095.36 697.3,1085.19C708.57,1054.97 722.16,1025.76 736.35,996.83C751.75,965.45 769.22,935.2 787.12,905.2C805.95,873.63 826.72,843.31 847.84,813.24C870.01,781.67 894.17,751.61 918.76,721.92C945.22,689.96 973.9,660.02 1003.59,631.09C1027.99,607.32 1053.92,585.29 1081.58,565.34C1082.99,564.32 1084.29,563.14 1085.63,562.04C1077.3,539.73 1067.65,518.68 1055.39,498.71C1054.09,499.51 1053.44,499.84 1052.87,500.27C1033.05,515.15 1012.96,529.69 993.5,545.04C977.31,557.81 961.42,571.04 946.22,584.96C929,600.72 912.7,617.47 895.63,634.45ZM312.84,534.07C306.49,548.18 300.04,562.25 295.12,577.5C363.83,603.14 427.69,636.8 487.89,678.01C498.99,660.24 509.66,643.13 520.5,625.78C518.28,624.09 516.44,622.66 514.56,621.27C473.5,591.07 430.27,564.28 385.25,540.49C367.04,530.87 347.86,523.05 329.11,514.45C327.54,513.73 325.84,513.29 323.87,512.6C320.14,519.86 316.66,526.59 312.84,534.07ZM601.98,521.22C610.88,511.54 619.78,501.86 628.86,491.98C627.79,490.99 627.08,490.19 626.24,489.56C607.03,475.09 587.97,460.4 568.51,446.27C557.54,438.31 546.02,431.09 534.54,423.86C507.57,406.88 479.67,391.58 450.61,378.42C447.04,376.8 444.39,376.78 441.32,379.37C429.43,389.39 417.35,399.18 405.42,409.15C402.55,411.55 399.98,414.33 396.78,417.41C466.58,448.46 529.75,489.45 591.76,532.73C595.24,528.8 598.35,525.29 601.98,521.22ZM423.8,815.79C427.87,805.01 431.93,794.24 435.94,783.63C409.05,760.53 290.57,695.52 272.41,693.87C272.3,694.73 272.11,695.6 272.08,696.47C271.15,720.58 272.25,744.59 275.45,768.52C275.89,771.81 277.32,773.43 280.42,774.69C293.16,779.86 306.14,784.62 318.31,790.94C334.82,799.52 350.52,809.66 366.84,818.63C382.21,827.08 397.93,834.88 413.51,842.93C413.74,843.05 414.16,842.78 414.8,842.6C417.68,834.05 420.61,825.32 423.8,815.79ZM591.93,308.08C586.79,309.49 581.66,310.9 576.52,312.31C625.75,341.98 671.17,376.16 715.45,411.48C733.71,397.47 751.44,383.87 769.47,370.04C763.99,365.48 758.88,360.95 753.48,356.79C726.81,336.26 699.33,316.87 671.08,298.58C668.53,296.93 665.95,296.35 662.89,296.58C639.2,298.34 615.87,302.26 591.93,308.08ZM1087.47,842.57C1097.22,815.21 1103.93,787.12 1107.97,758.36C1108.46,754.89 1107.79,752.05 1105.99,749.12C1100.79,740.64 1095.8,732.03 1090.66,723.52C1088.93,720.65 1086.98,717.91 1084.62,714.35C1067.26,732.06 1050.48,749.18 1033.88,766.13C1051.14,793.71 1067.98,820.62 1085.15,848.04C1085.96,846.15 1086.56,844.73 1087.47,842.57ZM966.54,956.98C973.41,970.8 980.27,984.62 987.35,998.86C997.85,988.5 1007.42,978.24 1016.36,967.27C996.89,930.97 977.24,895.49 954.55,860.73C946.03,872.24 938.12,882.93 930.61,893.08C942.75,914.67 954.46,935.47 966.54,956.98ZM828.95,1067.58C827.86,1070.07 826.7,1072.53 825.72,1075.05C825.28,1076.18 824.68,1077.64 825.03,1078.64C827.15,1084.74 829.53,1090.75 832.02,1097.32C851.61,1089.18 870.76,1081.34 889.16,1071.22C880.77,1049.01 870.75,1028.1 859.51,1006.69C848.17,1026.97 838.42,1046.73 828.95,1067.58Z" style="fill:currentColor;fill-rule:nonzero;"/>
        </g>
    </g>
</svg>
