<?xml version="1.0" encoding="UTF-8" standalone="no"?>
<!DOCTYPE svg PUBLIC "-//W3C//DTD SVG 1.1//EN" "http://www.w3.org/Graphics/SVG/1.1/DTD/svg11.dtd">
<svg width="100%" height="100%" viewBox="0 0 1380 1372" version="1.1" xmlns="http://www.w3.org/2000/svg" xmlns:xlink="http://www.w3.org/1999/xlink" xml:space="preserve" xmlns:serif="http://www.serif.com/" style="fill-rule:evenodd;clip-rule:evenodd;stroke-linejoin:round;stroke-miterlimit:2;">
    <g transform="matrix(1,0,0,1,6.17995,53.0511)">
        <g id="Layer_3">
            <g>
                <path d="M1102.83,533.83C1096.67,506.18 1089.67,479.54 1079.87,453.66C1075.94,443.27 1072.38,432.75 1067.63,422.7C1066.61,420.55 1065.72,418.61 1067.1,416.27C1079.11,395.89 1091.07,375.48 1103.74,353.91C1110.58,361.92 1114.04,370.7 1118.14,378.85C1137.06,416.42 1148.83,456.48 1160.47,496.8C1174.29,544.68 1174.9,593.29 1173.08,642.09C1171.7,679.06 1162.55,714.81 1148.11,748.96C1145.01,756.29 1146.47,762.83 1148.4,769.55C1159.55,808.2 1162.33,847.83 1159.27,887.54C1156.81,919.48 1147.17,950.13 1134.49,979.68C1123.4,1005.53 1110.92,1030.62 1090.78,1050.72C1069,1072.46 1044.5,1090.73 1014.61,1099.68C997.67,1104.75 980.71,1094.76 975.44,1078.84C970.53,1064.01 980.3,1046.58 996.12,1039.16C1026.87,1024.74 1051.72,1004.3 1066.61,972.36C1077.53,948.95 1087.35,925.3 1092.19,900.05C1096.14,879.46 1099.84,858.45 1093.98,836.02C1081.77,846.46 1069.1,854.9 1056.45,863.4C1037.9,875.85 1018.07,885.72 996.1,888.44C951.03,894.02 913.59,882.38 888.61,834.95C875.99,810.98 872.08,785.95 876.83,759.53C879.52,744.57 885.9,730.8 892.02,717.01C903.83,690.41 919.49,666.46 940.4,646.02C950.49,636.16 962.38,629.89 975.87,626.29C997,620.65 1017.69,620.31 1038.92,627.51C1061.71,635.24 1078.95,649.99 1095.3,666.51C1097.64,668.88 1099.07,672.29 1103.59,673.65C1105.24,665.82 1107.77,658.21 1108.33,650.47C1111.02,613.35 1111.02,576.26 1104.69,539.41C1104.4,537.73 1103.62,536.14 1102.83,533.83ZM984.71,692.45C968.24,709.15 957,729.18 947.72,750.47C941.6,764.51 936.48,778.87 941.68,794.25C949.24,816.61 961.32,832.7 991.57,823.79C1002.25,820.64 1011.18,814.89 1020.53,809.52C1041.95,797.21 1059.45,780.9 1072.04,759.5C1074.06,756.07 1074.75,752.88 1072.88,749.05C1062.78,728.32 1050.57,709.25 1031.6,695.38C1017.1,684.78 1001.75,683.87 984.71,692.45Z" style="fill-rule:nonzero;"/>
                <path d="M1088.5,197.42C1076.25,213.63 1064.2,229.24 1055.72,247.18C1052.56,253.85 1049.21,254.54 1043.64,249.21C1037.48,243.31 1030.47,238.29 1023.75,232.99C1020.37,230.33 1019.23,227.97 1021.96,223.7C1042.53,191.54 1064.73,160.82 1095.71,137.6C1103.12,132.04 1111.55,128.36 1120.31,125.83C1136.75,121.08 1151.73,133.97 1153,152.73C1155.02,182.49 1147.78,210.44 1137.82,238.06C1123.12,278.84 1101.76,316.17 1079.91,353.37C1048.52,406.8 1017.84,460.65 985.95,513.79C956.57,562.74 927.86,612.09 898.93,661.32C863.91,720.86 829.05,780.52 794,840.06C762.27,893.95 730.28,947.68 698.57,1001.58C672.78,1045.4 647.31,1089.41 621.5,1133.21C617.61,1139.82 613.24,1146.6 604.85,1148.35C600.07,1149.35 595.1,1149.81 591.32,1145.45C587.03,1140.49 587.07,1134.8 589.49,1129.32C595.49,1115.75 601.82,1102.32 608.14,1088.89C628.07,1046.53 647.98,1004.16 668.03,961.86C693.09,908.99 718.3,856.19 743.44,803.35C769.44,748.7 795.46,694.06 821.42,639.4C848.84,581.66 876.21,523.9 903.59,466.14C924.36,422.32 945.11,378.49 965.88,334.67C967.21,331.86 968.33,328.87 971.73,326.73C982.89,334.16 991.62,344.35 1000.42,354.45C1002.49,356.82 1001.26,359.19 1000.56,361.7C997.78,371.58 993.48,381.02 991.93,391.24C991.29,395.42 990.59,399.63 992.66,404.79C1002.08,399.23 1007.87,390.62 1014.09,382.79C1038.19,352.48 1058.76,319.86 1074.2,284.33C1086.01,257.14 1098.54,230.18 1107.47,201.84C1110.25,193.02 1111.05,183.57 1113.23,171.82C1101.16,178.99 1095.48,188.41 1088.5,197.42Z" style="fill-rule:nonzero;"/>
                <path d="M302.65,656.05C307.88,650.72 312.5,645.63 317.51,640.95C322.15,636.62 321.65,633.35 317.21,629.01C295.95,608.22 275.23,586.87 253.77,566.29C240.67,553.73 231.17,540.23 232.12,520.98C232.94,504.31 246.29,485.41 262.47,481.33C281.85,476.45 299.89,478.62 314.76,493.89C333.08,512.69 352.23,530.66 370.15,549.87C375.89,556.02 381.64,562.56 389.5,567.35C397.95,562.44 403.78,554.5 410.64,547.83C429.27,529.69 447.4,511.03 465.88,492.73C479.52,479.22 503.32,475.07 520.97,482.79C536.8,489.71 548.89,509 547.57,527.18C546.75,538.4 542.66,548.96 534.54,557.15C510.59,581.28 486.63,605.4 462.19,629.03C456.97,634.08 457.6,636.82 462.12,641.28C485.65,664.52 509.36,687.59 532.29,711.41C547.54,727.25 552.95,747.29 540.1,769.99C531.71,784.81 509.17,795.06 490.22,790.84C480.11,788.59 471.27,783.5 463.79,775.87C441.97,753.61 419.83,731.68 397.83,709.6C390.22,701.96 388.83,702 381.3,709.62C357.41,733.79 334.23,758.7 308.87,781.35C294.86,793.86 270.58,794.94 254.2,785.27C239.19,776.41 229.53,756.18 232.61,738.13C234.05,729.72 237,721.25 243.13,715.04C262.59,695.28 282.48,675.95 302.65,656.05Z" style="fill-rule:nonzero;"/>
                <path d="M230.69,384.34C228.23,364.4 235.28,349.43 249.35,336.34C270.28,316.86 290.19,296.27 310.6,276.22C320.32,266.67 320.47,266.06 311.12,256.72C289.48,235.12 268.32,212.99 245.91,192.21C227.11,174.78 227.16,143.63 237.14,129.39C252.63,107.28 284.24,101.73 304.97,119.16C326.16,136.98 344.75,157.6 364.29,177.19C371.49,184.41 378.93,191.39 386.43,198.64C396.09,192.22 402.34,183.49 409.91,176.23C428.07,158.8 445.65,140.75 463.8,123.31C486.73,101.28 521.47,105.14 537.5,131.67C548.52,149.91 547.81,168.1 533.31,184.74C517.24,203.18 499.12,219.83 481.86,237.24C473.63,245.55 465.33,253.79 457.08,262.09C452.57,266.63 456.88,269.38 459.48,272.01C476.16,288.84 492.99,305.52 509.77,322.25C516.85,329.31 524.11,336.19 531,343.43C542.49,355.52 549.42,375.82 539.72,396.55C532.75,411.45 516.78,421.47 498.27,421.99C483.2,422.41 471.09,416.75 460.72,406.37C438.31,383.94 415.69,361.71 393.61,338.97C388.17,333.36 385.18,333.7 379.91,339.07C356.34,363.04 332.56,386.83 308.41,410.22C284.6,433.27 236.6,422.67 230.69,384.34Z" style="fill-rule:nonzero;"/>
                <path d="M486.26,852.51C512.63,846.04 532.3,853.35 543.96,873.48C554.72,892.06 549.58,917.49 532.73,933.64C510.23,955.21 488.39,977.45 465.98,999.11C460.06,1004.83 460.36,1008.84 466.16,1014.47C489.14,1036.78 511.91,1059.32 534.47,1082.07C551.06,1098.8 553.87,1121.53 542.69,1140.99C528.99,1164.83 494.72,1172.12 473.07,1152.62C451.86,1133.52 432.28,1112.62 411.99,1092.5C407.73,1088.27 403.15,1084.3 399.33,1079.7C394.49,1073.86 390.58,1074.08 385.36,1079.42C363.14,1102.11 340.65,1124.53 318.25,1147.03C303.81,1161.54 287.3,1167.46 266.9,1160.85C235.7,1150.74 224.84,1111.22 246.52,1086.7C263.87,1067.07 283.38,1049.32 302.3,1031.11C310.1,1023.6 318.85,1017.08 326.63,1009.43C322.5,1001.92 318.08,998.61 314.33,994.87C294.1,974.7 274.05,954.34 253.3,934.71C237.42,919.69 231.24,901.9 237.37,881.25C247.68,846.56 292.49,840.39 315.7,863.64C337.3,885.28 358.86,906.95 380.45,928.61C381.86,930.03 383.42,931.33 384.7,932.86C390.04,939.22 394.79,938.27 400.24,932.57C414.04,918.13 427.6,903.38 442.39,889.99C456.46,877.26 467.4,860.73 486.26,852.51Z" style="fill-rule:nonzero;"/>
                <path d="M828.39,219.45C794.93,205.37 761.27,193.36 726.6,185.65C701.78,180.13 676.91,173.4 650.78,173.88C627.17,174.31 603.51,171.95 579.87,170.75C565.14,170 552.07,156.49 551.98,142.08C551.89,128.25 564.75,115.16 578.48,112.76C606.92,107.78 635.52,109.39 664.06,109.69C680.61,109.86 696.83,114 713.04,117.07C734.28,121.09 755.34,126.02 776.06,132.41C817.23,145.1 857.39,160.23 895.89,179.65C930.28,197 963.92,215.62 995.42,237.85C1013.39,250.53 1030.9,263.82 1046.28,279.72C1048.97,282.5 1050.86,285.23 1049.21,288.72C1040.49,307.27 1030.07,324.83 1018.68,342.09C964.43,286.28 898.68,249.94 828.39,219.45Z" style="fill-rule:nonzero;"/>
            </g>
        </g>
    </g>
</svg>
