<?xml version="1.0" encoding="UTF-8" standalone="no"?>
<!DOCTYPE svg PUBLIC "-//W3C//DTD SVG 1.1//EN" "http://www.w3.org/Graphics/SVG/1.1/DTD/svg11.dtd">
<svg width="100%" height="100%" viewBox="0 0 1380 1372" version="1.1" xmlns="http://www.w3.org/2000/svg" xmlns:xlink="http://www.w3.org/1999/xlink" xml:space="preserve" xmlns:serif="http://www.serif.com/" style="fill-rule:evenodd;clip-rule:evenodd;stroke-linejoin:round;stroke-miterlimit:2;">
    <g id="Layer_2" transform="matrix(1,0,0,1,5.87665,58.9223)">
        <g>
            <path d="M555.63,493.35C555.2,488.45 554.8,484.03 554.49,479.61C554.06,473.56 553.54,467.52 553.34,461.46C553.14,455.36 553,449.23 553.39,443.15C553.85,435.84 554.92,428.58 555.65,421.28C556.32,414.59 556.87,407.89 557.52,401.2C557.75,398.88 558.1,396.57 558.45,394.26C559.82,385.2 560.84,376.07 562.74,367.12C563.74,362.38 564.6,357.79 564.35,352.26C554.79,352.29 545.52,351.8 535.98,352.3C536.91,357.71 537.8,362.46 538.52,367.22C540.09,377.58 541.54,387.96 543.11,398.32C543.7,402.21 544.63,406.06 545.11,409.96C545.68,414.53 545.96,419.13 546.33,423.72C546.48,425.58 546.23,427.53 546.66,429.31C548.04,435.01 547.94,440.71 547.39,446.49C547.13,449.2 548.27,452.08 546.19,454.51C549.56,458.67 547.08,463.49 547.65,467.98C547.85,469.53 546.89,471.23 546.28,473.52C547.57,475.4 547.12,477.77 546.59,480.8C545.89,484.71 546.02,488.9 545.22,492.98C544.02,499.1 543.73,505.42 542.39,511.5C540.68,519.27 538.61,527 536.14,534.57C531.97,547.37 527.62,560.12 522.87,572.71C519.86,580.67 515.28,588.07 512.7,596.14C510.26,603.77 506.62,610.76 503.34,617.94C498.51,628.52 493.33,638.91 487.64,649.1C481.56,659.98 474.69,670.29 467.7,680.56C463.77,686.34 460.27,692.49 455.72,697.73C450.59,703.64 446.88,710.49 441.94,716.46C440.38,718.35 438.52,719.99 436.38,722.17C435.24,720.6 434.12,719.73 433.96,718.7C433.39,714.98 432.83,711.21 432.83,707.46C432.81,695.73 432.68,683.98 433.4,672.29C433.62,668.68 432.7,665.38 432.76,661.91C432.83,658.16 432.81,654.41 432.82,650.66C432.83,648.67 432.56,646.64 432.88,644.7C433.44,641.32 433.48,638.06 433.03,634.62C432.63,631.5 433.63,628.22 433.74,625C434.17,612.93 434.43,600.86 434.86,588.79C435.08,582.49 435.3,576.18 435.91,569.92C436.86,560.3 438.72,550.74 439.09,541.11C439.35,534.21 440.76,527.59 442.09,520.98C444.21,510.48 446.57,499.99 450.68,489.99C454.13,481.6 456.84,472.89 460.4,464.54C465.32,453.01 470.6,441.62 475.96,430.28C481.4,418.77 486.94,407.29 492.79,395.99C497.58,386.74 502.96,377.81 507.94,368.66C510.82,363.37 513.43,357.94 516.48,351.95L495.29,351.95C494.77,290.57 494.25,229.88 493.73,169.36L600.13,169.36L600.13,352.31L586.06,352.31C586.53,354.25 586.57,355.69 587.2,356.8C592.49,366.32 598.04,375.7 603.19,385.29C606.91,392.2 610.11,399.39 613.61,406.42C615.69,410.61 618.08,414.65 620.03,418.89C625.08,429.89 629.57,441.16 635.02,451.95C640.91,463.61 646.04,475.54 650.32,487.84C652.33,493.6 653.73,499.58 655.38,505.46C656.3,508.72 657.11,512.02 658.07,515.27C660.9,524.87 662.09,534.74 663.02,544.65C664.47,560.1 665.98,575.53 666.29,591.08C666.48,600.6 667.66,610.09 668.16,619.61C668.43,624.81 668.17,630.03 668.25,635.24C668.57,656.38 669.01,677.52 669.2,698.66C669.25,704.59 668.73,710.54 668.12,716.45C667.94,718.21 666.52,719.83 665.73,721.39C662.32,720.88 660.78,718.89 659.27,716.87C654.12,709.95 648.88,703.09 643.84,696.08C639.63,690.23 634.8,684.59 631.84,678.13C629.63,673.31 625.69,670.13 623.32,665.66C620.88,661.06 617.84,656.78 615.29,652.23C613.74,649.45 612.81,646.32 611.28,643.52C609.95,641.1 608.01,639.18 606.92,636.4C603.92,628.68 599.91,621.39 596.63,613.75C593.3,605.99 589.2,598.49 585.95,590.64C580.59,577.68 575.17,564.79 570.85,551.36C567.29,540.27 564.27,529.02 560.64,517.96C559.25,513.72 558.67,509.21 557.78,504.81C557.02,501.15 556.39,497.49 555.63,493.35Z" style="fill:rgb(2,2,3);fill-rule:nonzero;"/>
            <path d="M799.01,538C797.77,541.88 796.89,545.49 795.79,549.03C794.35,553.68 792.88,558.32 791.17,562.87C788.46,570.08 785.53,577.21 782.69,584.37C782.62,584.54 782.59,584.72 782.5,584.88C777.09,593.76 774.97,604.1 769.9,613.13C767.3,617.75 764.64,622.36 762.36,627.14C760.21,631.63 758.85,636.51 756.55,640.91C753.33,647.07 749.59,652.96 746.02,658.93C744.27,661.87 742.42,664.74 740.6,667.64C739.36,669.61 735.86,670.11 736.9,673.66C737.09,674.31 735.77,675.4 735.16,676.3C731.31,681.92 727.56,687.62 723.58,693.15C720.14,697.94 716.14,702.35 712.96,707.3C710.4,711.3 706.25,713.87 704.09,718.12C703.14,719.99 701.77,721.29 698.59,720.62C698.11,717.79 697.15,714.67 697.12,711.54C696.97,694.7 697.05,677.87 697.04,661.03C697.04,657.63 696.98,654.22 697.05,650.82C697.36,635.68 697.1,620.5 698.29,605.43C698.83,598.61 698.68,591.83 699.08,585.04C699.69,574.63 699.98,564.18 701.27,553.85C703.07,539.44 704.32,524.9 708.28,510.85C711.75,498.56 715.47,486.36 720.74,474.66C724.72,465.82 728,456.68 731.73,447.73C732.68,445.45 734.15,443.38 735.42,441.24C735.69,440.78 736.32,440.48 736.45,440.01C739.7,428.91 745.52,419.02 750.98,408.94C754.05,403.27 756.35,397.18 759.36,391.47C764.79,381.17 770.5,371.02 776.07,360.8C777.32,358.5 778.44,356.12 779.95,353.13L761.74,353.13C760.63,291.83 761.1,231.13 760.28,170.28L866.02,170.28C866.3,231.54 866.57,292.23 866.84,353.38L850.14,353.38C852.07,357.44 853.54,360.84 855.27,364.09C860.17,373.26 865.22,382.34 870.14,391.5C872.51,395.91 874.77,400.38 876.98,404.88C879.24,409.49 881.31,414.2 883.59,418.81C885.98,423.65 888.7,428.32 890.94,433.22C897.29,447.08 904.65,460.51 908.94,475.26C914.57,483.46 915.94,493.32 918.78,502.48C921.54,511.41 924.23,520.55 924.96,530.1C925.53,537.56 927.31,544.92 928.1,552.37C928.78,558.78 928.73,565.26 929.17,571.7C929.37,574.55 930.21,577.36 930.35,580.2C930.82,590.27 931.2,600.35 931.45,610.43C931.86,626.68 932.12,642.93 932.5,659.18C932.79,671.78 933.47,684.38 933.38,696.98C933.33,704.64 932.16,712.29 931.5,719.77C928.57,721.01 926.91,720.75 925.29,718.57C920.23,711.75 914.86,705.17 909.83,698.33C905.9,692.99 902.25,687.43 898.55,681.92C896.44,678.78 894.52,675.53 892.45,672.36C889.71,668.17 886.76,664.11 884.18,659.82C880.34,653.43 876.59,646.97 873.1,640.38C869.58,633.72 866.38,626.89 863.12,620.09C860.12,613.84 856.31,607.78 854.56,601.18C853.18,595.99 849.64,592.15 848.24,587.12C846.76,581.8 844.55,576.68 842.54,571.52C840.58,566.48 838.2,561.59 836.48,556.47C833.33,547.07 830.49,537.57 827.61,528.09C826.23,523.57 824.72,519.05 823.84,514.42C822.34,506.53 821.21,498.57 820.07,490.62C819.36,485.66 818.64,480.67 818.42,475.68C818.03,466.67 817.65,457.63 817.94,448.63C818.3,437.55 819.1,426.47 820.17,415.44C821.05,406.4 822.58,397.43 823.89,388.44C824.82,382.07 825.9,375.71 826.85,369.34C827.61,364.28 828.28,359.2 828.98,354.18C824.53,352.77 804.81,352.67 799.75,354.17C800.63,358.62 801.64,363.12 802.41,367.67C803.47,373.95 804.32,380.27 805.33,386.55C806.15,391.67 807.19,396.75 807.94,401.87C808.69,407.01 809.03,412.21 809.87,417.34C810.88,423.46 809.72,429.74 811.71,435.84C812.55,438.41 811.91,441.48 811.92,444.32C811.95,453.88 812.63,463.5 811.74,472.97C811.21,478.67 811.7,484.6 809.6,490.23C808.71,492.62 809.44,495.56 808.92,498.14C806.62,509.7 804.89,521.4 800.53,532.46C799.92,534.13 799.7,535.95 799.01,538Z" style="fill:rgb(2,2,3);fill-rule:nonzero;"/>
            <path d="M159.9,213.4C163.76,203.51 168.33,194.48 175.05,186.73C182.52,178.12 190.92,170.74 202.64,168.69C206.89,167.94 211.26,167.63 215.58,167.63C232.78,167.6 249.98,167.78 267.17,167.86C287.99,167.96 308.81,168.05 329.62,168.15C331.22,168.16 332.83,168.15 335.22,168.15C334.93,229.26 334.93,289.94 334,351.15L320.98,351.15C322.04,353.67 322.65,355.49 323.54,357.15C330.31,369.73 337.4,382.14 343.83,394.88C347.18,401.52 350.5,408.23 353.53,415.07C356.43,421.63 360.12,428.06 363.29,434.61C367.59,443.51 371.29,452.7 375.31,461.75C376.76,465.03 378.63,468.15 379.85,471.5C382.06,477.53 383.84,483.72 385.96,489.78C387.32,493.66 389.51,497.33 390.38,501.3C392.39,510.48 395.32,519.4 396.58,528.83C397.45,535.33 398.56,541.87 399.18,548.42C399.52,551.99 400.37,555.59 399.49,559.33C399.11,560.96 400.94,563.06 400.68,564.78C399.91,569.99 401.89,574.91 401.83,580.03C401.76,585.23 402.26,590.43 402.4,595.63C402.51,599.59 402.44,603.56 402.46,607.52C402.47,608.41 402.53,609.31 402.6,610.2C403,615.76 403.67,621.32 403.77,626.88C404.21,652 404.55,677.12 404.75,702.25C404.79,707.24 404.26,712.26 403.59,717.22C403.39,718.75 401.86,720.09 400.67,721.94C397.98,719.34 395.5,717.46 393.68,715.07C389.1,709.08 384.81,702.88 380.44,696.74C378.98,694.68 377.74,692.47 376.24,690.44C368.2,679.57 360.79,668.29 354.02,656.59C352.41,653.81 350.17,651.54 349.88,647.95C349.75,646.34 347.05,645.09 346.18,643.35C342.22,635.4 338.48,627.34 334.69,619.3C331.09,611.64 327.47,603.99 323.98,596.28C322.88,593.84 322.24,591.19 321.25,588.69C319.96,585.44 318.71,582.15 317.14,579.03C309.9,564.6 305.52,549.11 300.78,533.81C296.51,520.03 292.97,505.95 291.16,491.56C290.51,486.42 290.28,481.23 290.03,476.05C289.62,467.58 288.97,459.1 289.12,450.64C289.27,442.39 290.23,434.14 290.94,425.91C291.56,418.58 292.11,411.23 293.07,403.94C294.15,395.75 295.7,387.63 296.96,379.47C298.11,372.02 299.14,364.54 300.23,357.08C300.46,355.49 300.71,353.91 301.06,351.59C299.11,351.45 297.25,351.21 295.39,351.2C268.42,350.98 241.44,350.56 214.47,350.68C197.34,350.76 183.96,343.8 173.82,330.48C169.79,325.19 166.21,319.41 163.37,313.4C152.95,291.34 150.62,267.94 152.9,243.92C153.91,233.6 156.29,223.57 159.9,213.4Z" style="fill:rgb(2,2,3);fill-rule:nonzero;"/>
            <path d="M1256.38,261.44C1255.61,267.87 1251.78,271.46 1246.69,274.01C1238.44,278.16 1230.18,282.27 1221.92,286.41C1180,307.41 1138.08,328.41 1096.18,349.45C1093.78,350.66 1091.61,352.35 1089.19,353.51C1087.64,354.25 1085.82,354.7 1084.1,354.75C1079.4,354.91 1074.69,354.76 1069.98,354.8C1068.42,354.81 1066.87,355 1064.75,355.14C1066.06,362.59 1067.28,369.51 1068.47,376.44C1068.87,378.74 1069.16,381.06 1069.51,383.36C1070.67,391.16 1072.05,398.93 1072.92,406.75C1073.68,413.6 1073.85,420.52 1074.3,427.41C1074.46,429.84 1074.49,432.29 1074.88,434.68C1077.15,448.71 1076.73,462.77 1075.18,476.8C1073.93,488.2 1072.46,499.58 1070.9,510.95C1070.59,513.2 1069.38,515.32 1068.76,517.55C1066.12,526.95 1063.8,536.45 1060.86,545.75C1058.23,554.06 1054.96,562.17 1051.91,570.35C1050.11,575.18 1048.34,580.04 1046.28,584.77C1044.58,588.68 1042.47,592.4 1040.56,596.22C1040.27,596.8 1039.71,597.56 1039.87,598.02C1040.9,600.95 1038.54,602.81 1037.59,604.98C1033.76,613.71 1029.71,622.35 1025.53,630.92C1022.16,637.83 1018.58,644.64 1014.9,651.39C1012.4,655.96 1009.6,660.37 1006.87,664.81C1006.12,666.04 1005.23,667.2 1004.26,668.27C1002.29,670.44 999.72,672.18 999.74,675.62C999.74,676.22 999.03,676.85 998.61,677.44C990.44,688.87 982.29,700.31 974.08,711.71C972.3,714.18 970.3,716.51 968.32,718.83C966.83,720.58 966.78,720.53 962.75,720.01C962.31,717.71 961.51,715.27 961.42,712.81C960.97,699.46 960.4,686.11 960.42,672.76C960.44,656.89 960.88,641.02 961.4,625.16C961.89,610.4 962.63,595.64 963.43,580.89C963.92,571.91 964.63,562.94 965.4,553.99C965.94,547.74 966.18,541.38 967.61,535.32C969.39,527.75 970.64,520.05 972.41,512.47C974.53,503.36 977.77,494.65 980.25,485.7C982.39,477.96 986.09,470.65 989.21,463.2C991.85,456.91 994.59,450.67 997.44,444.48C997.87,443.55 999.15,443.01 1000.62,441.81C1000.22,440.56 999.51,438.8 1002.21,436.61C1004.41,434.82 1004.33,430.4 1005.67,427.32C1007.65,422.74 1009.99,418.31 1012.16,413.82C1014.42,409.16 1016.55,404.43 1018.95,399.85C1022.35,393.35 1025.98,386.98 1029.47,380.52C1032.12,375.62 1034.73,370.69 1037.31,365.75C1039.08,362.38 1040.78,358.97 1042.96,354.7C1038.78,354.7 1035.58,354.8 1032.39,354.67C1028.84,354.52 1028.37,353.98 1028.16,350.52C1028.11,349.62 1028.14,348.71 1028.14,347.8C1027.99,290.58 1027.85,233.36 1027.71,176.14C1027.71,174.55 1027.85,172.95 1027.93,171.03C1029.54,170.92 1030.93,170.74 1032.31,170.74C1049.87,170.75 1067.44,170.77 1085,170.82C1090.11,170.83 1094.93,171.7 1099.56,174.26C1111.11,180.66 1122.79,186.84 1134.53,192.89C1169.77,211.05 1205.07,229.08 1240.3,247.26C1243.98,249.16 1247.44,251.55 1250.78,254.01C1253.22,255.77 1255.81,257.65 1256.38,261.44Z" style="fill:rgb(2,2,3);fill-rule:nonzero;"/>
            <path d="M894.31,203.68C894.25,186.12 894.32,169.11 894.09,152.09C893.89,136.94 894.99,122.06 901.22,107.98C906.76,95.47 914.55,84.69 926.36,77.5C944.16,66.67 964.8,71.64 977.79,85.3C992.57,100.84 999.35,119.42 999.63,140.44C1000.08,174.65 1000.05,208.86 1000.26,243.07C1000.49,282.17 1000.77,321.26 1001,360.36C1001.07,372.48 1001.43,384.62 999.02,396.62C996.22,410.55 990.88,423.26 981.25,433.89C974.94,440.86 967.54,446.17 958.25,448.57C941.13,453 927.18,447.16 915.6,434.9C901.89,420.38 896.31,402.37 895.44,382.87C894.83,369.32 895.07,355.72 895,342.15C894.75,296.18 894.53,250.2 894.31,203.68Z" style="fill:rgb(2,2,3);fill-rule:nonzero;"/>
            <path d="M467.48,338.41C467.48,352.89 467.69,366.83 467.43,380.77C467.17,394.52 464.1,407.68 457.71,419.96C453.91,427.25 449.07,433.74 442.79,439.12C426.17,453.33 404.46,453.43 387.8,439.21C375.58,428.79 368.7,415.16 365.51,399.75C363.87,391.83 363.03,383.62 362.96,375.53C362.55,326.11 362.48,276.69 362.27,227.28C362.17,202.3 362.06,177.32 361.87,152.34C361.78,139.99 362.21,127.76 366.09,115.85C370.28,102.98 377.01,91.63 387.25,82.91C404.21,68.46 427.02,69.17 443.2,85.07C459.27,100.87 466.06,120.38 466.3,142.39C466.67,176.96 466.64,211.53 466.84,246.11C467,276.69 467.26,307.28 467.48,338.41Z" style="fill:rgb(2,2,3);fill-rule:nonzero;"/>
            <path d="M645.35,91.42C652.82,82.09 661.6,75.54 673.26,73.35C686.79,70.8 698.55,74.85 708.27,83.9C725.12,99.59 732.29,119.69 732.5,142.36C732.81,177.28 732.83,212.21 733.03,247.14C733.25,285.68 733.55,324.23 733.79,362.77C733.86,374.17 734.15,385.58 731.88,396.85C729.12,410.58 723.85,423.14 714.49,433.72C708.51,440.49 701.35,445.55 692.57,448.16C678.05,452.48 665.38,448.56 654.11,439.26C642.96,430.06 636.29,417.85 632.8,404.08C630.86,396.42 629.5,388.42 629.33,380.55C628.78,354.5 628.88,328.43 628.74,302.37C628.51,260.2 628.27,218.04 628.09,175.87C628.04,163.56 627.92,151.25 628.3,138.96C628.85,121.49 634.25,105.6 645.35,91.42Z" style="fill:rgb(2,2,3);fill-rule:nonzero;"/>
            <path d="M521.68,845.71C511,870.76 500.69,895.67 486.57,918.46C472.49,941.2 458.16,963.98 439.51,984.71C438.29,982.95 436.87,981.76 436.58,980.33C435.93,977.18 435.59,973.91 435.57,970.68C435.47,956.2 435.48,941.71 435.54,927.23C435.58,917.57 435.62,907.9 435.93,898.24C436.45,882.24 437.18,866.24 437.83,850.24C438.04,845.2 437.85,840.09 438.59,835.13C439.72,827.66 438.89,820.07 440.78,812.61C442.12,807.31 441.92,801.64 442.72,796.18C443.65,789.8 444.63,783.41 446.11,777.15C447.72,770.37 449.74,763.68 451.92,757.06C454.17,750.26 456.81,743.6 459.31,736.88C460.31,734.21 461.29,731.53 462.44,728.92C464.74,723.73 467.21,718.62 469.48,713.43C470.7,710.65 471.21,707.47 472.82,704.97C478.02,696.88 480.54,687.56 485.21,679.22C489.86,670.9 493.67,662.1 498.03,653.61C501.11,647.61 504.5,641.77 507.73,635.85C510.27,631.18 512.64,626.41 515.33,621.83C519.5,614.73 523.86,607.75 528.16,600.73C529.33,598.82 530.67,597.04 533.32,597.73C536.04,598.43 536.65,600.58 537.05,603.06C540.03,621.61 543.21,640.13 546.07,658.7C547.16,665.79 547.52,673 548.33,680.14C548.87,684.95 549.9,689.71 550.21,694.53C550.56,700.02 550.44,705.55 550.38,711.07C550.29,720.2 550.35,729.34 549.88,738.45C549.08,753.79 547.02,769.02 542.94,783.82C539.19,797.43 534.65,810.84 530.12,824.22C527.7,831.36 524.58,838.28 521.68,845.71Z" style="fill:rgb(2,2,3);fill-rule:nonzero;"/>
            <path d="M851.95,614.64C855.54,620.86 858.99,626.7 862.24,632.65C864.21,636.26 865.82,640.06 867.67,643.73C869.99,648.34 872.43,652.9 874.74,657.52C877.61,663.25 880.39,669.02 883.21,674.77C887.72,683.96 892.42,693.07 896.67,702.37C900.02,709.69 902.31,717.52 905.99,724.66C909.89,732.25 913.86,739.81 916.31,747.95C918.58,755.5 921.99,762.67 923.02,770.67C923.78,776.63 926.21,782.35 927.27,788.29C929.31,799.74 931.26,811.22 931.29,822.93C931.3,828.14 930.82,833.59 932.16,838.5C934.38,846.68 932.45,854.94 933.98,863.15C935.15,869.4 932.85,876.32 934.13,882.53C935.44,888.89 934.88,895.04 935.11,901.29C935.44,910.1 935.8,918.91 936.15,927.72C936.21,929.17 936.27,930.61 936.27,932.06C936.28,939.12 936.41,946.18 936.24,953.24C936.05,961.29 935.76,969.34 935.14,977.36C934.96,979.7 933.51,981.95 932.6,984.33C927.12,982.73 925.49,978.14 922.77,974.72C919.23,970.27 915.8,965.72 912.55,961.06C907.42,953.71 902.46,946.23 897.45,938.79C896.65,937.6 895.98,936.31 895.2,935.1C890.76,928.2 885.96,921.5 881.94,914.36C877.85,907.09 874.53,899.38 870.85,891.88C867.08,884.17 863.2,876.52 859.54,868.75C857.73,864.91 856.46,860.81 854.69,856.94C850.85,848.55 846.64,840.36 844.32,831.32C843.22,827.04 840.59,823.18 839.17,818.95C835.62,808.41 831.82,797.9 829.14,787.13C826.2,775.34 823.78,763.42 822.29,751.27C820.29,735.09 820.43,718.9 820.53,702.7C820.56,696.63 821.77,690.57 822.4,684.5C823.13,677.54 823.66,670.55 824.56,663.61C825.52,656.13 826.77,648.69 827.94,641.23C829.51,631.17 831.12,621.11 832.71,611.05C833.19,608.04 833.49,604.99 834.22,602.04C834.71,600.05 835.1,597.77 838.11,597.58C840.93,597.4 842.38,598.7 843.66,600.95C846.22,605.47 849.01,609.87 851.95,614.64Z" style="fill:rgb(2,2,3);fill-rule:nonzero;"/>
            <path d="M1006.86,1190.62C1004.51,1193.82 1002.42,1196.72 1000.31,1199.6C996.94,1204.2 993.55,1208.78 990.21,1213.4C989.49,1214.4 989.02,1215.58 988.32,1216.61C985.08,1221.36 981.81,1226.09 978.55,1230.82C976.72,1233.48 974.96,1236.19 973.01,1238.76C971.2,1241.16 968.98,1242.75 965.37,1240.98C965.04,1238.9 964.37,1236.45 964.3,1233.98C963.84,1217.74 962.36,1201.42 963.48,1185.28C964.38,1172.32 963.15,1159.38 964.54,1146.49C965.38,1138.68 965.3,1130.86 965.26,1123.02C965.23,1116.03 966.18,1109.03 966.72,1102.04C966.8,1100.96 967.13,1099.89 967.13,1098.82C967.12,1091.61 967.29,1084.45 968.43,1077.26C969.82,1068.5 970.26,1059.59 971.39,1050.78C972.84,1039.53 975.98,1028.65 979.45,1017.88C981.92,1010.21 984.38,1002.51 987.34,995.01C989.96,988.37 993.29,982.02 996.23,975.51C997.48,972.75 998.17,969.66 999.77,967.14C1002.56,962.74 1003.86,957.75 1006.12,953.15C1008.35,948.62 1010.34,943.98 1012.6,939.47C1017.25,930.18 1021.95,920.91 1026.76,911.7C1031.91,901.83 1036.87,891.83 1042.52,882.25C1046.75,875.07 1051.04,867.91 1055.07,860.62C1057.17,856.81 1060.19,857.32 1063.86,857.38C1064.44,859.27 1065.3,861.26 1065.65,863.34C1067.13,872.12 1068.48,880.92 1069.84,889.72C1070.88,896.45 1071.81,903.19 1072.87,909.91C1073.75,915.54 1074.79,921.14 1075.68,926.77C1076.18,929.96 1076.68,933.16 1076.92,936.38C1078.31,954.69 1079.66,973.01 1079.04,991.4C1078.99,992.82 1078.55,994.22 1078.31,995.63C1078.01,997.4 1077.34,999.21 1077.53,1000.93C1078.55,1010.21 1076.29,1019.18 1074.42,1028.04C1072.02,1039.35 1068.38,1050.41 1065.17,1061.55C1063.48,1067.41 1062.21,1073.52 1059.56,1078.94C1056.19,1085.85 1054.98,1093.43 1051.61,1100.34C1047,1109.81 1043.39,1119.77 1039.09,1129.39C1034.41,1139.84 1029.66,1150.28 1024.48,1160.49C1020.82,1167.69 1016.38,1174.5 1012.29,1181.49C1010.55,1184.41 1008.82,1187.36 1006.86,1190.62Z" style="fill:rgb(3,2,3);fill-rule:nonzero;"/>
            <path d="M556.02,720.86C556.36,710.39 556.32,700.43 557.14,690.53C557.86,681.79 559.58,673.14 560.78,664.44C561.66,658.06 562.22,651.63 563.24,645.28C564.53,637.21 566.24,629.2 567.57,621.13C568.38,616.22 568.78,611.23 569.45,606.29C569.71,604.33 569.95,602.32 570.63,600.48C571.79,597.31 575.79,596.65 578.08,599.1C578.69,599.76 579.35,600.47 579.67,601.29C582.58,608.72 588.85,614.28 591.56,621.63C593.46,626.79 597.65,630.46 598.98,635.98C599.84,639.56 603.54,642.37 604.92,645.93C607.1,651.55 610.59,656.39 613.16,661.76C615.77,667.21 618.62,672.54 621.19,678.01C625.08,686.29 628.77,694.65 632.62,702.94C634.49,706.97 636.66,710.87 638.47,714.93C641.85,722.51 645.19,730.11 648.28,737.81C649.46,740.76 649.86,744.01 650.74,747.09C651.03,748.09 651.7,748.98 652.19,749.93C652.94,751.36 653.92,752.71 654.4,754.22C656.25,760.11 658.33,765.97 659.61,772C661.44,780.62 664.06,789.07 664.33,798.04C664.5,803.69 666.22,809.29 666.61,814.95C667.51,828.15 667.95,841.38 668.73,854.59C669.32,864.6 670.32,874.59 670.81,884.61C671.14,891.48 670.78,898.37 670.94,905.25C671.2,916.98 671.76,928.7 671.92,940.43C672.04,949.61 671.85,958.79 671.57,967.97C671.44,972.27 670.88,976.56 670.28,980.83C670.13,981.94 669.11,982.92 668.68,983.64C662.52,982.79 661.04,977.28 657.86,973.75C653.78,969.23 650.68,963.84 647.17,958.81C646.14,957.33 645.16,955.81 644.15,954.32C639.84,947.93 635.52,941.54 631.2,935.15C628.72,931.48 625.59,928.1 623.88,924.1C621.16,917.74 615.58,913.16 613.77,906.18C612.77,902.34 609.63,899.11 607.84,895.42C602.86,885.11 597.99,874.75 593.27,864.32C591.67,860.79 590.86,856.92 589.31,853.37C586.62,847.19 583.54,841.19 580.8,835.03C579.33,831.73 578.08,828.31 576.99,824.87C573.86,814.94 570.86,804.97 567.81,795.02C566.31,790.13 564.44,785.33 563.39,780.35C561.32,770.58 559.31,760.81 558.15,750.84C557.02,741.01 555.97,731.26 556.02,720.86Z" style="fill:rgb(3,2,3);fill-rule:nonzero;"/>
            <path d="M936.24,1218.53C935.74,1224.63 935.26,1230.18 934.75,1235.72C934.59,1237.49 934.31,1239.25 934.12,1240.77C930.98,1242.76 928.62,1241.67 926.95,1239.39C921.97,1232.59 916.91,1225.82 912.44,1218.69C909.77,1214.44 906.37,1210.82 903.61,1206.7C902.04,1204.35 900.86,1201.73 899.36,1199.33C897.96,1197.09 896.33,1195 894.85,1192.81C891.64,1188.07 888.3,1183.4 885.29,1178.53C882.18,1173.48 879.16,1168.35 876.54,1163.03C872.11,1154.05 866.97,1145.43 863.85,1135.78C862.32,1131.05 859.22,1126.86 857.17,1122.27C853.89,1114.92 850.94,1107.42 847.79,1100.02C845.75,1095.22 843.6,1090.54 842.92,1085.22C842.62,1082.84 840.32,1080.78 839.49,1078.38C837.62,1072.96 836.11,1067.42 834.45,1061.92C831.72,1052.89 828.55,1043.95 826.37,1034.79C824.22,1025.72 822.32,1016.46 821.65,1007.19C820.63,993.02 820.29,978.76 820.55,964.55C820.74,954 822.24,943.46 823.34,932.93C824.27,924.02 825.25,915.1 826.6,906.25C827.68,899.22 829.5,892.3 830.71,885.29C831.89,878.48 832.7,871.61 833.7,864.77C833.93,863.18 834.05,861.53 834.59,860.04C836.09,855.82 840.09,855.13 842.76,858.77C845.31,862.24 847.72,865.88 849.68,869.71C854.46,879.08 860.36,887.8 865.22,897.11C869.62,905.54 873.95,914.02 878.21,922.53C880.02,926.16 881.47,929.97 883.27,933.6C887.19,941.48 891.37,949.23 895.16,957.16C897.83,962.75 899.95,968.6 902.46,974.27C904.85,979.67 907.49,984.96 909.87,990.36C911.61,994.3 913.33,998.26 914.68,1002.34C917.55,1011.03 919.99,1019.87 922.95,1028.53C925.64,1036.39 927.14,1044.47 928.21,1052.64C929.36,1061.48 930.5,1070.34 931.16,1079.23C932.08,1091.63 932.35,1104.08 933.27,1116.48C933.88,1124.71 933.71,1132.95 934.08,1141.14C934.29,1145.85 934.88,1150.65 934.94,1155.44C935.02,1161.73 935.05,1168.01 935.26,1174.3C935.5,1181.63 936.05,1188.95 936.22,1196.28C936.39,1203.5 936.25,1210.75 936.24,1218.53Z" style="fill:rgb(3,2,3);fill-rule:nonzero;"/>
            <path d="M1072.67,647.26C1073.55,653.77 1074.35,659.81 1075.05,665.87C1075.23,667.41 1075.11,668.99 1075.11,670.56C1075.11,671.28 1074.75,672.21 1075.08,672.67C1077.58,676.24 1076.5,680.33 1077.05,684.2C1078.43,693.84 1079.25,703.5 1079.03,713.24C1078.78,724.2 1078.96,735.22 1077.87,746.1C1076.66,758.22 1074.82,770.32 1071.33,782.08C1069.59,787.93 1068.51,793.99 1066.54,799.76C1063.08,809.92 1059.13,819.91 1055.5,830.01C1054.23,833.55 1053.58,837.32 1052.12,840.77C1049.22,847.64 1045.96,854.36 1042.84,861.14C1039.7,867.99 1036.56,874.83 1033.41,881.68C1029.61,889.94 1025.97,898.27 1021.94,906.41C1019.42,911.51 1016.5,916.44 1013.41,921.21C1007.34,930.59 1001.04,939.82 994.8,949.09C991.13,954.54 987.46,960 983.64,965.36C979.9,970.6 976.06,975.78 972.08,980.85C970.95,982.29 969.18,983.24 966.96,985.01C965.82,981.7 964.33,979.28 964.23,976.8C963.67,962.79 963.22,948.76 963.18,934.74C963.15,925.01 963.88,915.29 964.16,905.56C964.28,901.43 964.03,897.29 964.15,893.16C964.25,889.79 963.56,886.39 965.3,883.06C966.01,881.7 965.06,879.56 965.14,877.79C965.76,864.67 966.45,851.55 967.13,838.42C967.49,831.39 967.64,824.35 968.33,817.35C969.1,809.53 970.31,801.76 971.45,793.98C972.15,789.23 972.83,784.46 973.96,779.81C975.81,772.17 977.92,764.59 980.12,757.04C981.58,752.03 982.91,746.88 985.17,742.21C989.35,733.55 991.21,723.81 997.22,716.01C998.29,710.15 1001.04,704.97 1003.73,699.75C1008.56,690.35 1013.34,680.93 1018.05,671.47C1020.43,666.7 1022.52,661.78 1024.91,657.01C1026.35,654.13 1028.21,651.45 1029.69,648.58C1032.2,643.72 1034.44,638.71 1037.01,633.88C1040.6,627.11 1044.33,620.41 1048.12,613.74C1050.6,609.37 1053.3,605.12 1055.86,600.79C1056.9,599.02 1057.93,597.5 1060.39,597.56C1062.67,597.61 1064.21,598.13 1064.63,600.67C1065.57,606.35 1066.67,612 1067.64,617.67C1069.3,627.39 1070.91,637.1 1072.67,647.26Z" style="fill:rgb(3,2,3);fill-rule:nonzero;"/>
            <path d="M407.65,1184.82C407.53,1200.19 407.45,1215.01 407.27,1229.84C407.24,1232.7 407.17,1235.65 406.47,1238.39C406.06,1239.99 404.36,1241.26 402.16,1244.05C400.72,1241.83 399.82,1240.28 398.75,1238.84C392.66,1230.61 386.35,1222.53 380.45,1214.16C373.81,1204.73 367.37,1195.15 361.14,1185.44C358.4,1181.17 356.95,1176.02 353.97,1171.97C346.37,1161.66 341.68,1149.85 336.11,1138.52C330.1,1126.3 324.79,1113.72 319.66,1101.1C316.24,1092.67 313.71,1083.88 310.71,1075.27C309.24,1071.06 307.31,1067 306.07,1062.73C303.55,1054.05 300.81,1045.43 298.47,1036.71C296.34,1028.76 295.1,1020.51 294.15,1012.32C293.8,1009.33 294.1,1006.33 292.83,1003.45C292.43,1002.53 292.41,1001.18 292.77,1000.24C294.3,996.22 293.11,992.47 292.02,988.64C291.68,987.45 291.65,986.13 291.74,984.88C292.25,977.92 290.47,970.84 293.07,963.96C293.58,962.61 292.64,960.77 292.75,959.18C293.04,955.14 292.52,951.19 293.86,947.01C294.97,943.55 293.92,939.45 294.96,935.43C296.43,929.8 296.03,923.72 296.89,917.9C298.43,907.46 300.37,897.09 302.04,886.67C303.15,879.77 304.03,872.84 305.09,865.94C305.87,860.87 306.17,860.25 308.86,856.85C312.75,859.18 316.5,861.2 318.85,865.84C322.82,873.68 327.94,880.93 332.26,888.6C335.69,894.69 338.61,901.05 341.83,907.26C344.31,912.04 347.05,916.69 349.4,921.53C352.59,928.1 355.38,934.87 358.61,941.43C361.61,947.52 365.64,953.18 367.96,959.49C370.25,965.73 374.07,971.1 376.37,977.26C380.18,987.48 384.44,997.55 387.96,1007.87C389.7,1012.96 393,1017.75 392.12,1023.57C395.97,1028.41 396.63,1034.32 397.55,1040.1C399.42,1051.95 402.14,1063.66 402.56,1075.74C402.94,1086.98 403.79,1098.2 404.58,1109.42C405.78,1126.64 406.67,1143.87 406.7,1161.15C406.7,1168.87 407.31,1176.57 407.65,1184.82Z" style="fill:rgb(3,2,3);fill-rule:nonzero;"/>
            <path d="M610.51,916.74C611.37,918.16 612.23,919.12 612.78,920.23C616.46,927.7 620.06,935.21 623.71,942.7C625.81,947.01 628.4,951.15 629.95,955.65C631.79,961.02 635.24,965.46 637.36,970.69C642.27,982.82 647.39,994.83 651.97,1007.11C656.08,1018.14 659.3,1029.33 661.92,1040.68C664.46,1051.69 665.94,1062.93 666.4,1074.3C666.77,1083.44 668.04,1092.53 668.62,1101.66C669.23,1111.19 669.58,1120.75 669.88,1130.3C670.3,1143.83 669.97,1157.42 671.1,1170.89C672.1,1182.82 671.94,1194.66 671.58,1206.57C671.47,1210.17 672.03,1213.78 671.92,1217.38C671.73,1223.86 671.49,1230.35 670.77,1236.79C670.54,1238.82 668.72,1240.67 667.49,1242.84C660.92,1238.11 656.94,1232.07 652.75,1226.25C648.85,1220.84 645.09,1215.32 641.45,1209.74C636.14,1201.6 630.98,1193.36 625.79,1185.15C622.82,1180.44 619.62,1175.84 617.04,1170.93C613.09,1163.41 607.61,1156.61 605.84,1148.02C600.39,1141.35 598.19,1133.04 594.5,1125.49C592.13,1120.65 590.43,1115.49 588.35,1110.5C584.92,1102.3 580.87,1094.32 578.12,1085.9C575.84,1078.91 573.01,1072.13 570.78,1065.15C568.78,1058.91 567.12,1052.56 565.52,1046.21C563.57,1038.5 561.84,1030.73 560.15,1022.97C557.86,1012.43 557.64,1001.8 556.26,991.25C555.31,983.99 556,976.51 556.16,969.13C556.28,963.59 556.56,958.03 557.09,952.51C557.73,945.77 558.74,939.06 559.52,932.33C560.11,927.25 560.41,922.12 561.16,917.07C562.77,906.26 564.61,895.49 566.34,884.69C567.51,877.35 568.47,869.97 569.89,862.67C570.29,860.63 569.77,857.53 572.87,856.84C575.97,856.15 578.21,857.99 579.65,860.34C582.06,864.27 583.96,868.51 586.28,872.49C587.7,874.92 589.93,876.94 591.06,879.47C594.67,887.5 600.15,894.46 603.87,902.4C606.04,907.04 608.19,911.69 610.51,916.74Z" style="fill:rgb(3,2,3);fill-rule:nonzero;"/>
            <path d="M342.48,892.73C339.53,886.74 336.28,881.29 334.15,875.43C330.56,865.53 325.02,856.54 321.52,846.62C316.75,833.1 311.64,819.7 306.94,806.16C304.25,798.42 301.81,790.57 299.78,782.63C297.83,774.99 296.6,767.17 294.97,759.45C293.92,754.5 294.82,749.28 292.77,744.48C292.64,744.17 292.72,743.76 292.71,743.4C292.38,732.66 291.66,721.91 291.84,711.18C291.98,703.03 293.32,694.91 294,686.76C294.41,681.82 294.41,676.85 294.9,671.92C295.45,666.39 296.25,660.87 297.11,655.38C298.34,647.59 299.72,639.83 301.04,632.06C302.73,622.14 304.37,612.22 306.15,602.32C306.56,600.02 307.15,597.72 310.58,598.15C311.95,598.32 312.66,598.47 313.53,599.7C318.61,606.9 323.64,614.07 327.56,622.04C331.97,631.02 337.22,639.58 341.88,648.44C345.35,655.04 348.4,661.85 351.75,668.51C354.77,674.52 358.18,680.34 361,686.43C368.32,702.24 375.55,718.1 382.52,734.06C384.85,739.39 386.21,745.14 388.15,750.66C389.56,754.66 391.63,758.48 392.6,762.58C393.77,767.52 395.44,772.3 396.59,777.21C398.78,786.58 400.15,796.09 401.37,805.66C402.14,811.64 402.82,817.74 403.32,823.71C404.19,834.02 404.64,844.4 405.21,854.75C405.44,858.93 404.55,863.19 404.98,867.33C405.28,870.24 404.26,873.38 406.31,876.19C407.02,877.16 406.59,879 406.62,880.44C406.77,889.48 406.97,898.52 407.03,907.56C407.15,926.71 407.23,945.85 407.23,965C407.23,969.27 406.67,973.54 406.69,977.81C406.7,980.96 405.55,982.95 402.24,983.92C396.6,977.55 390.69,971.37 386.52,963.63C383.89,958.77 379.68,954.78 376.82,950.02C372.56,942.93 366.62,936.91 363.62,929.04C363.56,928.87 363.57,928.63 363.46,928.53C359.68,925.06 357.95,920.27 355.35,916.04C353.5,913.03 351.64,910.01 349.95,906.91C347.45,902.35 345.1,897.7 342.48,892.73Z" style="fill:rgb(3,2,3);fill-rule:nonzero;"/>
            <path d="M549.37,1002.72C548.32,1010.86 547.6,1018.55 546.25,1026.12C544.94,1033.45 543.16,1040.72 541.23,1047.91C539.99,1052.52 538.05,1056.93 536.54,1061.47C534.92,1066.36 533.41,1071.29 531.88,1076.2C530.45,1080.79 529.59,1085.43 526.82,1089.71C524.28,1093.63 523.6,1098.71 521.77,1103.14C518.69,1110.6 515.33,1117.94 512.11,1125.35C509.26,1131.9 506.65,1138.56 503.56,1144.99C500.93,1150.46 497.76,1155.67 494.85,1161C493.68,1163.15 492.58,1165.34 491.41,1167.49C487.77,1174.19 484.2,1180.94 480.41,1187.55C478.27,1191.29 475.86,1194.9 473.36,1198.42C467.83,1206.19 462.14,1213.85 456.57,1221.59C453.42,1225.98 450.51,1230.54 447.24,1234.84C445.02,1237.77 442.37,1240.37 439.75,1243.29C436.29,1239.55 435.12,1235.57 435.82,1230.76C436.19,1228.2 435.51,1225.51 435.53,1222.89C435.68,1207.35 435.93,1191.82 436.07,1176.28C436.12,1170.74 435.57,1165.18 436,1159.68C437.01,1146.76 435.61,1133.77 437.68,1120.87C438.7,1114.54 438.7,1108.05 439.01,1101.62C439.1,1099.67 438.44,1097.69 438.53,1095.74C438.71,1091.8 439.21,1087.87 439.51,1083.94C439.92,1078.61 440.03,1073.24 440.68,1067.94C441.58,1060.54 442.63,1053.14 444.02,1045.82C445.36,1038.78 446.85,1031.72 448.97,1024.88C451.73,1016 455.19,1007.34 458.35,998.59C458.59,997.92 458.86,997.25 459.07,996.57C461.94,987.37 465.5,978.48 470.96,970.46C471.69,963.46 476.27,958.06 478.79,951.8C480.08,948.59 481.85,945.58 483.36,942.47C488.96,930.9 494.51,919.32 500.16,907.77C501.58,904.87 503.24,902.07 504.86,899.28C507.5,894.73 510.59,890.45 512.32,885.38C512.94,883.56 514.26,881.92 515.48,880.37C520.06,874.58 521.51,866.84 527.2,861.76C527.56,861.44 527.79,860.85 527.87,860.35C528.18,858.16 528.9,856.44 531.59,856.75C534.16,857.04 536.59,859.42 537.01,861.93C538.72,872 540.63,882.04 542.12,892.14C543.94,904.48 545.28,916.89 547.07,929.23C549.49,945.94 550.83,962.71 550.37,979.6C550.18,987.16 549.75,994.69 549.37,1002.72Z" style="fill:rgb(3,2,3);fill-rule:nonzero;"/>
            <path d="M767.42,1145.68C763.47,1153.32 760.04,1160.79 755.95,1167.88C750.57,1177.21 744.75,1186.29 738.98,1195.39C729.73,1210.01 719.91,1224.24 709.35,1237.95C708.36,1239.23 707.33,1240.5 706.19,1241.65C705.58,1242.27 704.68,1242.61 703.94,1243.06C699.98,1241.49 700.24,1237.91 699.93,1234.85C699.6,1231.62 699.86,1228.34 699.86,1225.08L699.86,1172.94C699.86,1167.54 699.75,1162.14 699.88,1156.75C700.13,1146.84 700.48,1136.92 700.88,1127.01C701.15,1120.2 701.13,1113.34 702.02,1106.61C703.41,1096.12 702.26,1085.44 704.9,1075.02C706.01,1070.63 705.41,1065.83 705.97,1061.27C706.66,1055.62 707.91,1050.04 708.63,1044.39C710.3,1031.29 714.85,1018.96 718.96,1006.56C721.36,999.31 724.87,992.43 727.83,985.36C729.2,982.09 730.3,978.71 731.76,975.49C734.94,968.49 738.22,961.54 741.57,954.62C748.13,941.06 754.91,927.6 761.23,913.93C762.58,911 765.37,909.42 766.37,906.06C768.01,900.53 770.04,894.9 774.59,890.79C774.02,886.58 778.2,884.72 779.38,881.12C781.05,875.99 784.3,871.26 787.49,866.8C789.16,864.46 791.47,862.83 791.91,859.56C792.18,857.59 794.16,856.59 796.52,856.65C799.04,856.72 800.11,858.07 800.56,860.2C801.53,864.76 802.79,869.3 803.28,873.92C804.33,883.81 806.34,893.52 807.91,903.31C809.85,915.48 812.34,927.59 812.32,940.02C812.32,942.68 813.79,945.43 813.44,947.98C812.79,952.75 814.82,957.11 814.71,961.75C814.59,966.63 814.85,971.52 814.8,976.4C814.74,981.27 814.45,986.14 814.33,991.01C813.88,1009.37 811.25,1027.42 806.42,1045.13C804.97,1050.45 802.97,1055.63 801.12,1060.83C800.61,1062.28 799.74,1063.6 799,1064.96C798.76,1065.4 797.99,1065.9 798.08,1066.13C800.26,1071.82 796.02,1076.06 794.65,1080.9C793.5,1084.98 791.5,1088.82 789.91,1092.78C786.32,1101.77 782.9,1110.84 779.13,1119.76C775.47,1128.36 771.48,1136.81 767.42,1145.68Z" style="fill:rgb(3,2,3);fill-rule:nonzero;"/>
            <path d="M702.01,847.25C702.31,846.05 702.69,845.37 702.73,844.68C703.21,835.33 703.18,825.93 704.24,816.66C705.05,809.6 704.96,802.4 707.03,795.45C708.05,792.02 708.17,788.33 708.71,784.76C709.72,778.01 711.28,771.43 713.88,765.08C714.6,763.34 714.37,761.22 715.03,759.44C717.7,752.21 720.56,745.05 723.3,737.85C725.06,733.23 726.61,728.53 728.49,723.95C730.4,719.29 732.51,714.71 734.65,710.15C740.15,698.44 745.59,686.7 751.3,675.09C753.89,669.83 757.13,664.89 759.88,659.7C761.31,657 762.15,654 763.5,651.26C766.6,644.98 769.71,638.7 773.12,632.59C774.81,629.55 777.35,627 779.16,624.02C780.91,621.14 782.08,617.91 783.74,614.97C786.43,610.2 789.41,605.6 792.08,600.83C793.52,598.25 795.43,597.21 798.2,597.82C802.16,601.47 801.34,606.54 802.31,610.97C803.84,617.97 804.93,625.07 806.1,632.15C807.02,637.72 807.75,643.32 808.6,648.9C810.84,663.66 812.7,678.45 813.87,693.35C814.93,706.85 815.11,720.29 814.32,733.77C813.88,741.22 813.9,748.78 812.48,756.05C811.27,762.24 811.58,768.72 808.63,774.71C806.8,778.44 806.79,783.02 805.6,787.12C803.25,795.21 800.72,803.25 798.13,811.27C795.92,818.14 793.82,825.07 791.14,831.76C786.34,843.76 781.2,855.63 776.08,867.5C772.62,875.53 769.09,883.54 765.33,891.44C762.91,896.53 760.01,901.4 757.34,906.38C755.23,910.32 753.56,914.58 750.96,918.16C747.3,923.18 743.84,928.28 740.92,933.76C737.44,934.6 738.62,938.17 737.13,940.21C730.48,949.31 723.88,958.46 717.29,967.61C714.34,971.71 711.48,975.86 708.52,979.95C707.05,981.99 705.53,984.06 702.26,983.91C700.87,980.47 699.8,977.04 699.82,973.18C699.92,953.26 699.7,933.35 699.93,913.43C700.08,900.12 701.06,886.81 701.16,873.5C701.2,864.91 703.11,856.38 702.01,847.25Z" style="fill:rgb(3,2,3);fill-rule:nonzero;"/>
        </g>
    </g>
</svg>
